<?xml version="1.0" encoding="UTF-8"?>
<!DOCTYPE svg PUBLIC "-//W3C//DTD SVG 1.1//EN" "http://www.w3.org/Graphics/SVG/1.1/DTD/svg11.dtd">
<svg xmlns="http://www.w3.org/2000/svg" version="1.1" width="160px" height="39px" style="shape-rendering:geometricPrecision; text-rendering:geometricPrecision; image-rendering:optimizeQuality; fill-rule:evenodd; clip-rule:evenodd" xmlns:xlink="http://www.w3.org/1999/xlink">
<g><path style="opacity:1" fill="#d2c1a5" d="M 133.5,-0.5 C 133.833,-0.5 134.167,-0.5 134.5,-0.5C 135.11,0.391047 135.443,1.39105 135.5,2.5C 135.5,2.83333 135.5,3.16667 135.5,3.5C 134.5,2.16667 133.5,2.16667 132.5,3.5C 132.167,3.5 131.833,3.5 131.5,3.5C 132.6,2.39514 133.267,1.06181 133.5,-0.5 Z"/></g>
<g><path style="opacity:1" fill="#ad9679" d="M 24.5,-0.5 C 25.1667,-0.5 25.8333,-0.5 26.5,-0.5C 26.5172,1.56475 26.8505,3.56475 27.5,5.5C 27.1667,5.5 26.8333,5.5 26.5,5.5C 26.1667,5.5 25.8333,5.5 25.5,5.5C 25.4431,4.39105 25.1098,3.39105 24.5,2.5C 24.5,1.5 24.5,0.5 24.5,-0.5 Z"/></g>
<g><path style="opacity:0.969" fill="#b69a63" d="M 135.5,3.5 C 135.5,4.5 135.5,5.5 135.5,6.5C 134.5,6.5 133.5,6.5 132.5,6.5C 132.5,5.5 132.5,4.5 132.5,3.5C 133.5,2.16667 134.5,2.16667 135.5,3.5 Z"/></g>
<g><path style="opacity:0.941" fill="#bc9f6c" d="M 24.5,2.5 C 25.1098,3.39105 25.4431,4.39105 25.5,5.5C 24.8333,5.83333 24.1667,6.16667 23.5,6.5C 23.5,6.16667 23.5,5.83333 23.5,5.5C 23.2627,4.20895 23.596,3.20895 24.5,2.5 Z"/></g>
<g><path style="opacity:0.978" fill="#c8ba92" d="M 27.5,5.5 C 58.8333,5.5 90.1667,5.5 121.5,5.5C 120.5,6.16667 119.5,6.83333 118.5,7.5C 117.833,7.5 117.167,7.5 116.5,7.5C 115.833,7.5 115.167,7.5 114.5,7.5C 112.833,7.5 111.167,7.5 109.5,7.5C 104.833,7.5 100.167,7.5 95.5,7.5C 94.5,7.5 93.5,7.5 92.5,7.5C 90.8333,7.5 89.1667,7.5 87.5,7.5C 85.5,7.5 83.5,7.5 81.5,7.5C 74.1667,7.5 66.8333,7.5 59.5,7.5C 58.1667,7.5 56.8333,7.5 55.5,7.5C 54.8333,7.5 54.1667,7.5 53.5,7.5C 49.5,7.5 45.5,7.5 41.5,7.5C 40.1667,7.5 38.8333,7.5 37.5,7.5C 35.5,7.5 33.5,7.5 31.5,7.5C 30.0048,7.01131 28.6715,6.34464 27.5,5.5 Z"/></g>
<g><path style="opacity:0.965" fill="#c4c3a4" d="M 22.5,5.5 C 21.5,6.16667 20.5,6.83333 19.5,7.5C 18.8333,7.5 18.1667,7.5 17.5,7.5C 17.3505,6.44802 17.5172,5.44802 18,4.5C 19.3561,5.38017 20.8561,5.71351 22.5,5.5 Z"/></g>
<g><path style="opacity:0.992" fill="#bcb892" d="M 22.5,5.5 C 22.8333,5.5 23.1667,5.5 23.5,5.5C 23.5,5.83333 23.5,6.16667 23.5,6.5C 23.5,6.83333 23.5,7.16667 23.5,7.5C 22.8333,7.83333 22.1667,8.16667 21.5,8.5C 21.1583,7.66175 20.4916,7.32842 19.5,7.5C 20.5,6.83333 21.5,6.16667 22.5,5.5 Z"/></g>
<g><path style="opacity:1" fill="#cab872" d="M 25.5,5.5 C 25.8333,5.5 26.1667,5.5 26.5,5.5C 26.6716,6.49162 26.3382,7.15829 25.5,7.5C 24.8333,7.5 24.1667,7.5 23.5,7.5C 23.5,7.16667 23.5,6.83333 23.5,6.5C 24.1667,6.16667 24.8333,5.83333 25.5,5.5 Z"/></g>
<g><path style="opacity:1" fill="#9d7d43" d="M 26.5,5.5 C 26.8333,5.5 27.1667,5.5 27.5,5.5C 28.6715,6.34464 30.0048,7.01131 31.5,7.5C 31.5,7.83333 31.5,8.16667 31.5,8.5C 29.8333,8.5 28.1667,8.5 26.5,8.5C 25.8333,8.5 25.5,8.16667 25.5,7.5C 26.3382,7.15829 26.6716,6.49162 26.5,5.5 Z"/></g>
<g><path style="opacity:1" fill="#c7b587" d="M 131.5,3.5 C 131.833,3.5 132.167,3.5 132.5,3.5C 132.5,4.5 132.5,5.5 132.5,6.5C 133.5,6.5 134.5,6.5 135.5,6.5C 135.5,6.83333 135.5,7.16667 135.5,7.5C 132.167,7.5 128.833,7.5 125.5,7.5C 124.167,7.5 122.833,7.5 121.5,7.5C 120.5,7.5 119.5,7.5 118.5,7.5C 119.5,6.83333 120.5,6.16667 121.5,5.5C 125.329,6.06896 128.663,5.40229 131.5,3.5 Z"/></g>
<g><path style="opacity:0.98" fill="#d0beab" d="M 135.5,2.5 C 136.434,3.56764 136.768,4.90097 136.5,6.5C 137.791,6.26269 138.791,6.59603 139.5,7.5C 138.5,7.5 137.5,7.5 136.5,7.5C 136.167,7.5 135.833,7.5 135.5,7.5C 135.5,7.16667 135.5,6.83333 135.5,6.5C 135.5,5.5 135.5,4.5 135.5,3.5C 135.5,3.16667 135.5,2.83333 135.5,2.5 Z"/></g>
<g><path style="opacity:0.957" fill="#b9b486" d="M 145.5,5.5 C 145.5,6.16667 145.5,6.83333 145.5,7.5C 144.167,7.5 142.833,7.5 141.5,7.5C 142.514,6.32627 143.847,5.6596 145.5,5.5 Z"/></g>
<g><path style="opacity:1" fill="#9a9371" d="M 145.5,5.5 C 146.239,5.36899 146.906,5.53566 147.5,6C 146.947,7.87781 145.947,9.37781 144.5,10.5C 143.833,10.5 143.5,10.1667 143.5,9.5C 144.167,8.83333 144.833,8.16667 145.5,7.5C 145.5,6.83333 145.5,6.16667 145.5,5.5 Z"/></g>
<g><path style="opacity:0.937" fill="#ccc8af" d="M 17.5,7.5 C 17.5,7.83333 17.5,8.16667 17.5,8.5C 16.2223,8.78219 15.2223,9.44886 14.5,10.5C 14.5,9.5 14.5,8.5 14.5,7.5C 15.5,7.5 16.5,7.5 17.5,7.5 Z"/></g>
<g><path style="opacity:0.996" fill="#aba06f" d="M 17.5,8.5 C 17.5,8.16667 17.5,7.83333 17.5,7.5C 18.1667,7.5 18.8333,7.5 19.5,7.5C 20.4916,7.32842 21.1583,7.66175 21.5,8.5C 21.5,8.83333 21.5,9.16667 21.5,9.5C 21.5,9.83333 21.5,10.1667 21.5,10.5C 21.1667,10.5 20.8333,10.5 20.5,10.5C 20.1788,8.95186 19.1788,8.28519 17.5,8.5 Z"/></g>
<g><path style="opacity:1" fill="#5c4d36" d="M 31.5,7.5 C 33.5,7.5 35.5,7.5 37.5,7.5C 37.5,8.16667 37.5,8.83333 37.5,9.5C 36.1667,9.5 34.8333,9.5 33.5,9.5C 32.8333,9.5 32.1667,9.5 31.5,9.5C 31.5,9.16667 31.5,8.83333 31.5,8.5C 31.5,8.16667 31.5,7.83333 31.5,7.5 Z"/></g>
<g><path style="opacity:1" fill="#8e7549" d="M 37.5,7.5 C 38.8333,7.5 40.1667,7.5 41.5,7.5C 41.5,7.83333 41.5,8.16667 41.5,8.5C 40.209,8.26269 39.209,8.59603 38.5,9.5C 38.1667,9.5 37.8333,9.5 37.5,9.5C 37.5,8.83333 37.5,8.16667 37.5,7.5 Z"/></g>
<g><path style="opacity:1" fill="#685e40" d="M 41.5,7.5 C 45.5,7.5 49.5,7.5 53.5,7.5C 53.5,7.83333 53.5,8.16667 53.5,8.5C 51.5,8.5 49.5,8.5 47.5,8.5C 46.5,8.5 45.5,8.5 44.5,8.5C 44.5,9.5 44.5,10.5 44.5,11.5C 44.1667,11.5 43.8333,11.5 43.5,11.5C 43.5,10.1667 42.8333,9.5 41.5,9.5C 41.5,9.16667 41.5,8.83333 41.5,8.5C 41.5,8.16667 41.5,7.83333 41.5,7.5 Z"/></g>
<g><path style="opacity:1" fill="#8f613c" d="M 55.5,7.5 C 56.8333,7.5 58.1667,7.5 59.5,7.5C 59.5,7.83333 59.5,8.16667 59.5,8.5C 59.5,8.83333 59.5,9.16667 59.5,9.5C 58.8333,9.5 58.1667,9.5 57.5,9.5C 56.8333,8.83333 56.1667,8.16667 55.5,7.5 Z"/></g>
<g><path style="opacity:1" fill="#89714e" d="M 59.5,8.5 C 59.5,8.16667 59.5,7.83333 59.5,7.5C 66.8333,7.5 74.1667,7.5 81.5,7.5C 81.5,8.16667 81.5,8.83333 81.5,9.5C 80.5,9.5 79.5,9.5 78.5,9.5C 76.8333,8.16667 75.1667,8.16667 73.5,9.5C 72.5,9.5 71.5,9.5 70.5,9.5C 69.791,8.59603 68.791,8.26269 67.5,8.5C 66.5,8.5 65.5,8.5 64.5,8.5C 62.8333,8.5 61.1667,8.5 59.5,8.5 Z"/></g>
<g><path style="opacity:1" fill="#84714c" d="M 87.5,7.5 C 89.1667,7.5 90.8333,7.5 92.5,7.5C 92.1667,8.16667 91.8333,8.83333 91.5,9.5C 91.1667,9.5 90.8333,9.5 90.5,9.5C 88.9519,9.82124 88.2852,10.8212 88.5,12.5C 88.1667,12.5 87.8333,12.5 87.5,12.5C 87.5,12.1667 87.5,11.8333 87.5,11.5C 87.5,10.8333 87.5,10.1667 87.5,9.5C 87.5,8.83333 87.5,8.16667 87.5,7.5 Z"/></g>
<g><path style="opacity:1" fill="#746849" d="M 95.5,7.5 C 100.167,7.5 104.833,7.5 109.5,7.5C 109.5,7.83333 109.5,8.16667 109.5,8.5C 108.167,8.5 106.833,8.5 105.5,8.5C 104.508,8.32842 103.842,8.66175 103.5,9.5C 103.167,9.5 102.833,9.5 102.5,9.5C 101.5,8.16667 100.5,8.16667 99.5,9.5C 99.5,10.1667 99.5,10.8333 99.5,11.5C 99.1667,11.5 98.8333,11.5 98.5,11.5C 98.5983,8.75236 97.5983,8.0857 95.5,9.5C 95.5,8.83333 95.5,8.16667 95.5,7.5 Z"/></g>
<g><path style="opacity:1" fill="#8e754d" d="M 109.5,7.5 C 111.167,7.5 112.833,7.5 114.5,7.5C 114.167,8.16667 113.833,8.83333 113.5,9.5C 112.5,9.5 111.5,9.5 110.5,9.5C 110.167,9.5 109.833,9.5 109.5,9.5C 109.5,9.16667 109.5,8.83333 109.5,8.5C 109.5,8.16667 109.5,7.83333 109.5,7.5 Z"/></g>
<g><path style="opacity:1" fill="#5f532c" d="M 121.5,7.5 C 122.833,7.5 124.167,7.5 125.5,7.5C 125.5,7.83333 125.5,8.16667 125.5,8.5C 125.5,8.83333 125.5,9.16667 125.5,9.5C 124.5,9.5 123.5,9.5 122.5,9.5C 122.167,8.83333 121.833,8.16667 121.5,7.5 Z"/></g>
<g><path style="opacity:1" fill="#967a4e" d="M 125.5,8.5 C 125.5,8.16667 125.5,7.83333 125.5,7.5C 128.833,7.5 132.167,7.5 135.5,7.5C 135.833,7.5 136.167,7.5 136.5,7.5C 137.167,8.16667 137.833,8.83333 138.5,9.5C 138.167,9.5 137.833,9.5 137.5,9.5C 136.833,9.5 136.167,9.5 135.5,9.5C 132.375,8.52056 129.042,8.18723 125.5,8.5 Z"/></g>
<g><path style="opacity:0.969" fill="#ae9e7c" d="M 17.5,8.5 C 17.5,8.83333 17.5,9.16667 17.5,9.5C 16.596,10.209 16.2627,11.209 16.5,12.5C 16.1667,12.5 15.8333,12.5 15.5,12.5C 14.8333,12.1667 14.1667,11.8333 13.5,11.5C 12.4427,10.794 12.7761,10.4607 14.5,10.5C 15.2223,9.44886 16.2223,8.78219 17.5,8.5 Z"/></g>
<g><path style="opacity:1" fill="#544e38" d="M 23.5,7.5 C 24.1667,7.5 24.8333,7.5 25.5,7.5C 25.5,8.16667 25.8333,8.5 26.5,8.5C 26.5,8.83333 26.5,9.16667 26.5,9.5C 26.1667,9.5 25.8333,9.5 25.5,9.5C 24.5,9.5 23.5,9.5 22.5,9.5C 22.1667,9.5 21.8333,9.5 21.5,9.5C 21.5,9.16667 21.5,8.83333 21.5,8.5C 22.1667,8.16667 22.8333,7.83333 23.5,7.5 Z"/></g>
<g><path style="opacity:1" fill="#a0815d" d="M 53.5,7.5 C 54.1667,7.5 54.8333,7.5 55.5,7.5C 56.1667,8.16667 56.8333,8.83333 57.5,9.5C 57.5,9.83333 57.5,10.1667 57.5,10.5C 56.596,11.209 56.2627,12.209 56.5,13.5C 56.1667,13.5 55.8333,13.5 55.5,13.5C 55.8432,11.5168 55.1765,10.1834 53.5,9.5C 53.5,9.16667 53.5,8.83333 53.5,8.5C 53.5,8.16667 53.5,7.83333 53.5,7.5 Z"/></g>
<g><path style="opacity:1" fill="#545239" d="M 81.5,7.5 C 83.5,7.5 85.5,7.5 87.5,7.5C 87.5,8.16667 87.5,8.83333 87.5,9.5C 86.1667,9.5 84.8333,9.5 83.5,9.5C 82.8333,9.5 82.1667,9.5 81.5,9.5C 81.5,8.83333 81.5,8.16667 81.5,7.5 Z"/></g>
<g><path style="opacity:1" fill="#55432d" d="M 92.5,7.5 C 93.5,7.5 94.5,7.5 95.5,7.5C 95.5,8.16667 95.5,8.83333 95.5,9.5C 94.1667,9.5 92.8333,9.5 91.5,9.5C 91.8333,8.83333 92.1667,8.16667 92.5,7.5 Z"/></g>
<g><path style="opacity:1" fill="#5a4b32" d="M 114.5,7.5 C 115.167,7.5 115.833,7.5 116.5,7.5C 116.5,7.83333 116.5,8.16667 116.5,8.5C 115.791,9.40397 114.791,9.73731 113.5,9.5C 113.833,8.83333 114.167,8.16667 114.5,7.5 Z"/></g>
<g><path style="opacity:1" fill="#9b8052" d="M 116.5,8.5 C 116.5,8.16667 116.5,7.83333 116.5,7.5C 117.167,7.5 117.833,7.5 118.5,7.5C 119.5,7.5 120.5,7.5 121.5,7.5C 121.833,8.16667 122.167,8.83333 122.5,9.5C 121.833,9.5 121.167,9.5 120.5,9.5C 120.167,9.5 119.833,9.5 119.5,9.5C 118.833,9.5 118.167,9.5 117.5,9.5C 117.5,8.83333 117.167,8.5 116.5,8.5 Z"/></g>
<g><path style="opacity:1" fill="#d4c3a2" d="M 136.5,7.5 C 137.5,7.5 138.5,7.5 139.5,7.5C 140.167,7.5 140.833,7.5 141.5,7.5C 141.263,8.79105 141.596,9.79105 142.5,10.5C 142.5,11.1667 142.167,11.5 141.5,11.5C 140.5,10.8333 139.5,10.1667 138.5,9.5C 137.833,8.83333 137.167,8.16667 136.5,7.5 Z"/></g>
<g><path style="opacity:0.984" fill="#cdb17d" d="M 141.5,7.5 C 142.833,7.5 144.167,7.5 145.5,7.5C 144.833,8.16667 144.167,8.83333 143.5,9.5C 142.833,9.5 142.5,9.83333 142.5,10.5C 141.596,9.79105 141.263,8.79105 141.5,7.5 Z"/></g>
<g><path style="opacity:0.988" fill="#cfba81" d="M 17.5,8.5 C 19.1788,8.28519 20.1788,8.95186 20.5,10.5C 20.1667,10.5 19.8333,10.5 19.5,10.5C 18.5084,10.6716 17.8417,10.3382 17.5,9.5C 17.5,9.16667 17.5,8.83333 17.5,8.5 Z"/></g>
<g><path style="opacity:1" fill="#c1af83" d="M 38.5,9.5 C 39.209,8.59603 40.209,8.26269 41.5,8.5C 41.5,8.83333 41.5,9.16667 41.5,9.5C 41.5,10.1667 41.5,10.8333 41.5,11.5C 41.1667,11.5 40.8333,11.5 40.5,11.5C 40.5,10.1667 39.8333,9.5 38.5,9.5 Z"/></g>
<g><path style="opacity:1" fill="#797870" d="M 47.5,9.5 C 49.4147,9.21552 51.0813,9.54885 52.5,10.5C 50.8212,10.2852 49.8212,10.9519 49.5,12.5C 49.1667,12.5 48.8333,12.5 48.5,12.5C 47.8902,11.609 47.5569,10.609 47.5,9.5 Z"/></g>
<g><path style="opacity:1" fill="#d8c3a3" d="M 57.5,10.5 C 57.5,10.1667 57.5,9.83333 57.5,9.5C 58.1667,9.5 58.8333,9.5 59.5,9.5C 59.8333,9.5 60.1667,9.5 60.5,9.5C 60.5,10.1667 60.8333,10.5 61.5,10.5C 61.4431,11.609 61.1098,12.609 60.5,13.5C 60.1667,13.5 59.8333,13.5 59.5,13.5C 59.1667,13.5 58.8333,13.5 58.5,13.5C 58.7373,12.209 58.404,11.209 57.5,10.5 Z"/></g>
<g><path style="opacity:1" fill="#c7ba96" d="M 70.5,9.5 C 71.5,9.5 72.5,9.5 73.5,9.5C 73.5,10.5 73.5,11.5 73.5,12.5C 73.5,12.8333 73.5,13.1667 73.5,13.5C 72.5,13.5 71.5,13.5 70.5,13.5C 70.5,12.8333 70.5,12.1667 70.5,11.5C 70.5,10.8333 70.5,10.1667 70.5,9.5 Z"/></g>
<g><path style="opacity:1" fill="#7b7867" d="M 81.5,9.5 C 82.1667,9.5 82.8333,9.5 83.5,9.5C 83.5,9.83333 83.5,10.1667 83.5,10.5C 83.5,11.1667 83.5,11.8333 83.5,12.5C 83.1667,12.5 82.8333,12.5 82.5,12.5C 81.8902,11.609 81.5569,10.609 81.5,9.5 Z"/></g>
<g><path style="opacity:1" fill="#7e8f84" d="M 83.5,10.5 C 83.5,10.1667 83.5,9.83333 83.5,9.5C 84.8333,9.5 86.1667,9.5 87.5,9.5C 87.5,10.1667 87.5,10.8333 87.5,11.5C 87.1667,11.5 86.8333,11.5 86.5,11.5C 85.791,10.596 84.791,10.2627 83.5,10.5 Z"/></g>
<g><path style="opacity:1" fill="#5b584c" d="M 105.5,8.5 C 106.833,8.5 108.167,8.5 109.5,8.5C 109.5,8.83333 109.5,9.16667 109.5,9.5C 107.952,9.82124 107.285,10.8212 107.5,12.5C 107.167,12.5 106.833,12.5 106.5,12.5C 106.167,11.1667 105.833,9.83333 105.5,8.5 Z"/></g>
<g><path style="opacity:1" fill="#c7b06e" d="M 128.5,10.5 C 128.5,10.1667 128.5,9.83333 128.5,9.5C 130.833,9.5 133.167,9.5 135.5,9.5C 135.167,10.1667 134.833,10.8333 134.5,11.5C 134.167,11.5 133.833,11.5 133.5,11.5C 132.5,10.1667 131.5,10.1667 130.5,11.5C 129.833,11.1667 129.167,10.8333 128.5,10.5 Z"/></g>
<g><path style="opacity:1" fill="#d9bd8f" d="M 17.5,9.5 C 17.8417,10.3382 18.5084,10.6716 19.5,10.5C 19.7148,12.1788 19.0481,13.1788 17.5,13.5C 17.5,12.8333 17.1667,12.5 16.5,12.5C 16.2627,11.209 16.596,10.209 17.5,9.5 Z"/></g>
<g><path style="opacity:1" fill="#c3aa7c" d="M 26.5,8.5 C 28.1667,8.5 29.8333,8.5 31.5,8.5C 31.5,8.83333 31.5,9.16667 31.5,9.5C 29.8212,9.28519 28.8212,9.95186 28.5,11.5C 27.8333,11.5 27.5,11.8333 27.5,12.5C 27.1667,12.5 26.8333,12.5 26.5,12.5C 26.5,11.5 26.5,10.5 26.5,9.5C 26.5,9.16667 26.5,8.83333 26.5,8.5 Z"/></g>
<g><path style="opacity:1" fill="#cab871" d="M 31.5,9.5 C 31.5,10.1667 31.5,10.8333 31.5,11.5C 30.5,11.5 29.5,11.5 28.5,11.5C 28.8212,9.95186 29.8212,9.28519 31.5,9.5 Z"/></g>
<g><path style="opacity:1" fill="#757870" d="M 31.5,9.5 C 32.1667,9.5 32.8333,9.5 33.5,9.5C 33.5,10.1667 33.5,10.8333 33.5,11.5C 33.5,12.1667 33.5,12.8333 33.5,13.5C 33.5,13.8333 33.5,14.1667 33.5,14.5C 33.5,14.8333 33.5,15.1667 33.5,15.5C 33.1667,15.5 32.8333,15.5 32.5,15.5C 32.5,14.8333 32.5,14.1667 32.5,13.5C 32.6716,12.5084 32.3382,11.8417 31.5,11.5C 31.5,10.8333 31.5,10.1667 31.5,9.5 Z"/></g>
<g><path style="opacity:1" fill="#747980" d="M 33.5,9.5 C 34.8333,9.5 36.1667,9.5 37.5,9.5C 37.8333,9.5 38.1667,9.5 38.5,9.5C 38.7373,10.791 38.404,11.791 37.5,12.5C 37.1667,12.5 36.8333,12.5 36.5,12.5C 35.791,11.596 34.791,11.2627 33.5,11.5C 33.5,10.8333 33.5,10.1667 33.5,9.5 Z"/></g>
<g><path style="opacity:1" fill="#525c60" d="M 41.5,9.5 C 42.8333,9.5 43.5,10.1667 43.5,11.5C 43.4431,12.609 43.1098,13.609 42.5,14.5C 41.596,13.791 41.2627,12.791 41.5,11.5C 41.5,10.8333 41.5,10.1667 41.5,9.5 Z"/></g>
<g><path style="opacity:1" fill="#b89e7a" d="M 47.5,8.5 C 47.5,8.83333 47.5,9.16667 47.5,9.5C 45.3023,9.40879 44.9689,10.0755 46.5,11.5C 45.8333,11.5 45.1667,11.5 44.5,11.5C 44.5,10.5 44.5,9.5 44.5,8.5C 45.5,8.5 46.5,8.5 47.5,8.5 Z"/></g>
<g><path style="opacity:1" fill="#e7cfad" d="M 53.5,9.5 C 55.1765,10.1834 55.8432,11.5168 55.5,13.5C 54.8333,13.5 54.1667,13.5 53.5,13.5C 53.5,12.1667 53.5,10.8333 53.5,9.5 Z"/></g>
<g><path style="opacity:1" fill="#6e7e77" d="M 60.5,9.5 C 61.5,9.5 62.5,9.5 63.5,9.5C 63.5,10.8333 63.5,12.1667 63.5,13.5C 63.1667,13.5 62.8333,13.5 62.5,13.5C 62.7373,12.209 62.404,11.209 61.5,10.5C 60.8333,10.5 60.5,10.1667 60.5,9.5 Z"/></g>
<g><path style="opacity:1" fill="#5d5e4e" d="M 67.5,8.5 C 68.791,8.26269 69.791,8.59603 70.5,9.5C 70.5,10.1667 70.5,10.8333 70.5,11.5C 69.609,12.1098 68.609,12.4431 67.5,12.5C 67.5,11.1667 67.5,9.83333 67.5,8.5 Z"/></g>
<g><path style="opacity:1" fill="#555f5a" d="M 78.5,9.5 C 77.5655,10.5676 77.2322,11.901 77.5,13.5C 77.5,14.1667 77.1667,14.5 76.5,14.5C 76.762,13.0222 76.4287,11.6888 75.5,10.5C 74.7025,10.9569 74.3691,11.6236 74.5,12.5C 74.1667,12.5 73.8333,12.5 73.5,12.5C 73.5,11.5 73.5,10.5 73.5,9.5C 75.1667,8.16667 76.8333,8.16667 78.5,9.5 Z"/></g>
<g><path style="opacity:1" fill="#8f8264" d="M 78.5,9.5 C 79.1667,10.1667 79.8333,10.8333 80.5,11.5C 79.8333,11.5 79.5,11.8333 79.5,12.5C 78.8333,12.5 78.5,12.8333 78.5,13.5C 78.1667,13.5 77.8333,13.5 77.5,13.5C 77.2322,11.901 77.5655,10.5676 78.5,9.5 Z"/></g>
<g><path style="opacity:1" fill="#d3c2a5" d="M 78.5,9.5 C 79.5,9.5 80.5,9.5 81.5,9.5C 81.5569,10.609 81.8902,11.609 82.5,12.5C 82.1583,13.3382 81.4916,13.6716 80.5,13.5C 80.5,12.8333 80.5,12.1667 80.5,11.5C 79.8333,10.8333 79.1667,10.1667 78.5,9.5 Z"/></g>
<g><path style="opacity:1" fill="#69797a" d="M 83.5,10.5 C 84.791,10.2627 85.791,10.596 86.5,11.5C 84.9519,11.8212 84.2852,12.8212 84.5,14.5C 84.1667,14.5 83.8333,14.5 83.5,14.5C 83.5,13.8333 83.5,13.1667 83.5,12.5C 83.5,11.8333 83.5,11.1667 83.5,10.5 Z"/></g>
<g><path style="opacity:1" fill="#d4c097" d="M 90.5,9.5 C 90.5,10.5 90.5,11.5 90.5,12.5C 89.8333,12.5 89.1667,12.5 88.5,12.5C 88.2852,10.8212 88.9519,9.82124 90.5,9.5 Z"/></g>
<g><path style="opacity:1" fill="#d4c4a8" d="M 90.5,9.5 C 90.8333,9.5 91.1667,9.5 91.5,9.5C 91.8333,10.8333 92.1667,12.1667 92.5,13.5C 91.8333,13.5 91.1667,13.5 90.5,13.5C 90.5,13.1667 90.5,12.8333 90.5,12.5C 90.5,11.5 90.5,10.5 90.5,9.5 Z"/></g>
<g><path style="opacity:1" fill="#6a6a5e" d="M 91.5,9.5 C 92.8333,9.5 94.1667,9.5 95.5,9.5C 95.1667,10.8333 94.8333,12.1667 94.5,13.5C 93.8333,13.5 93.1667,13.5 92.5,13.5C 92.1667,12.1667 91.8333,10.8333 91.5,9.5 Z"/></g>
<g><path style="opacity:1" fill="#cfba94" d="M 98.5,11.5 C 98.6716,12.4916 98.3382,13.1583 97.5,13.5C 97.1667,13.5 96.8333,13.5 96.5,13.5C 96.0623,12.4937 95.3957,12.4937 94.5,13.5C 94.8333,12.1667 95.1667,10.8333 95.5,9.5C 97.5983,8.0857 98.5983,8.75236 98.5,11.5 Z"/></g>
<g><path style="opacity:1" fill="#565c5b" d="M 99.5,9.5 C 100.5,8.16667 101.5,8.16667 102.5,9.5C 102.5,10.8333 102.5,12.1667 102.5,13.5C 102.167,13.5 101.833,13.5 101.5,13.5C 101.843,11.5168 101.176,10.1834 99.5,9.5 Z"/></g>
<g><path style="opacity:1" fill="#e1c897" d="M 110.5,9.5 C 111.5,9.5 112.5,9.5 113.5,9.5C 113.5,10.8333 113.5,12.1667 113.5,13.5C 112.833,13.5 112.167,13.5 111.5,13.5C 111.5,13.1667 111.5,12.8333 111.5,12.5C 110.89,11.609 110.557,10.609 110.5,9.5 Z"/></g>
<g><path style="opacity:1" fill="#716e63" d="M 116.5,8.5 C 117.167,8.5 117.5,8.83333 117.5,9.5C 117.5,11.1667 117.5,12.8333 117.5,14.5C 117.5,14.8333 117.5,15.1667 117.5,15.5C 117.167,15.5 116.833,15.5 116.5,15.5C 116.719,14.325 116.386,13.325 115.5,12.5C 114.571,13.6888 114.238,15.0222 114.5,16.5C 114.5,16.8333 114.5,17.1667 114.5,17.5C 113.566,16.4324 113.232,15.099 113.5,13.5C 113.5,12.1667 113.5,10.8333 113.5,9.5C 114.791,9.73731 115.791,9.40397 116.5,8.5 Z"/></g>
<g><path style="opacity:1" fill="#b09977" d="M 125.5,8.5 C 129.042,8.18723 132.375,8.52056 135.5,9.5C 133.167,9.5 130.833,9.5 128.5,9.5C 126.744,10.5521 126.077,12.2188 126.5,14.5C 126.167,14.5 125.833,14.5 125.5,14.5C 125.5,14.1667 125.5,13.8333 125.5,13.5C 125.5,12.1667 125.5,10.8333 125.5,9.5C 125.5,9.16667 125.5,8.83333 125.5,8.5 Z"/></g>
<g><path style="opacity:1" fill="#58522f" d="M 133.5,11.5 C 133.5,11.8333 133.5,12.1667 133.5,12.5C 130.833,13.5 130.833,14.5 133.5,15.5C 133.167,16.1667 132.833,16.8333 132.5,17.5C 131.167,17.5 130.5,16.8333 130.5,15.5C 130.5,14.1667 130.5,12.8333 130.5,11.5C 131.5,10.1667 132.5,10.1667 133.5,11.5 Z"/></g>
<g><path style="opacity:1" fill="#d7bc86" d="M 135.5,9.5 C 136.167,9.5 136.833,9.5 137.5,9.5C 137.5,9.83333 137.5,10.1667 137.5,10.5C 136.791,11.404 135.791,11.7373 134.5,11.5C 134.833,10.8333 135.167,10.1667 135.5,9.5 Z"/></g>
<g><path style="opacity:1" fill="#7a8c95" d="M 22.5,9.5 C 23.5,9.5 24.5,9.5 25.5,9.5C 25.3404,11.153 24.6737,12.4863 23.5,13.5C 22.7659,12.2921 22.4326,10.9587 22.5,9.5 Z"/></g>
<g><path style="opacity:1" fill="#e8d0ad" d="M 47.5,9.5 C 47.5569,10.609 47.8902,11.609 48.5,12.5C 48.5912,14.6977 47.9245,15.0311 46.5,13.5C 46.5,12.8333 46.5,12.1667 46.5,11.5C 44.9689,10.0755 45.3023,9.40879 47.5,9.5 Z"/></g>
<g><path style="opacity:1" fill="#667587" d="M 52.5,10.5 C 52.5,11.5 52.5,12.5 52.5,13.5C 51.8333,13.5 51.1667,13.5 50.5,13.5C 50.5,12.8333 50.1667,12.5 49.5,12.5C 49.8212,10.9519 50.8212,10.2852 52.5,10.5 Z"/></g>
<g><path style="opacity:1" fill="#51492e" d="M 57.5,10.5 C 58.404,11.209 58.7373,12.209 58.5,13.5C 58.1667,13.5 57.8333,13.5 57.5,13.5C 57.1667,13.5 56.8333,13.5 56.5,13.5C 56.2627,12.209 56.596,11.209 57.5,10.5 Z"/></g>
<g><path style="opacity:1" fill="#6e7c8b" d="M 99.5,9.5 C 101.176,10.1834 101.843,11.5168 101.5,13.5C 101.5,13.8333 101.5,14.1667 101.5,14.5C 100.833,14.5 100.167,14.5 99.5,14.5C 99.5,13.5 99.5,12.5 99.5,11.5C 99.5,10.8333 99.5,10.1667 99.5,9.5 Z"/></g>
<g><path style="opacity:1" fill="#d9c4a9" d="M 105.5,8.5 C 105.833,9.83333 106.167,11.1667 106.5,12.5C 106.5,13.1667 106.167,13.5 105.5,13.5C 105.5,12.8333 105.167,12.5 104.5,12.5C 103.89,11.609 103.557,10.609 103.5,9.5C 103.842,8.66175 104.508,8.32842 105.5,8.5 Z"/></g>
<g><path style="opacity:1" fill="#6e6963" d="M 109.5,9.5 C 109.5,10.8333 109.5,12.1667 109.5,13.5C 108.833,13.5 108.167,13.5 107.5,13.5C 107.5,13.1667 107.5,12.8333 107.5,12.5C 107.285,10.8212 107.952,9.82124 109.5,9.5 Z"/></g>
<g><path style="opacity:1" fill="#b0936c" d="M 109.5,9.5 C 109.833,9.5 110.167,9.5 110.5,9.5C 110.557,10.609 110.89,11.609 111.5,12.5C 110.833,12.8333 110.167,13.1667 109.5,13.5C 109.5,12.1667 109.5,10.8333 109.5,9.5 Z"/></g>
<g><path style="opacity:1" fill="#5b5042" d="M 120.5,9.5 C 121.167,9.5 121.833,9.5 122.5,9.5C 122.611,10.1174 122.944,10.6174 123.5,11C 122.584,11.2784 121.918,11.7784 121.5,12.5C 121.5,12.8333 121.5,13.1667 121.5,13.5C 120.566,12.4324 120.232,11.099 120.5,9.5 Z"/></g>
<g><path style="opacity:1" fill="#5e6864" d="M 122.5,9.5 C 123.5,9.5 124.5,9.5 125.5,9.5C 125.5,10.8333 125.5,12.1667 125.5,13.5C 125.167,13.5 124.833,13.5 124.5,13.5C 124.5,12.8333 124.167,12.5 123.5,12.5C 122.833,12.5 122.167,12.5 121.5,12.5C 121.918,11.7784 122.584,11.2784 123.5,11C 122.944,10.6174 122.611,10.1174 122.5,9.5 Z"/></g>
<g><path style="opacity:1" fill="#e1c694" d="M 128.5,9.5 C 128.5,9.83333 128.5,10.1667 128.5,10.5C 127.833,11.8333 127.167,13.1667 126.5,14.5C 126.077,12.2188 126.744,10.5521 128.5,9.5 Z"/></g>
<g><path style="opacity:0.98" fill="#473e2c" d="M 137.5,10.5 C 137.5,10.1667 137.5,9.83333 137.5,9.5C 137.833,9.5 138.167,9.5 138.5,9.5C 139.5,10.1667 140.5,10.8333 141.5,11.5C 141.5,11.8333 141.5,12.1667 141.5,12.5C 141.5,12.8333 141.5,13.1667 141.5,13.5C 140.833,13.8333 140.167,14.1667 139.5,14.5C 139.771,12.6203 139.104,11.287 137.5,10.5 Z"/></g>
<g><path style="opacity:0.965" fill="#c1aa8e" d="M 143.5,9.5 C 143.5,10.1667 143.833,10.5 144.5,10.5C 144.5,11.1667 144.5,11.8333 144.5,12.5C 143.833,12.5 143.167,12.5 142.5,12.5C 142.167,12.5 141.833,12.5 141.5,12.5C 141.5,12.1667 141.5,11.8333 141.5,11.5C 142.167,11.5 142.5,11.1667 142.5,10.5C 142.5,9.83333 142.833,9.5 143.5,9.5 Z"/></g>
<g><path style="opacity:1" fill="#bca273" d="M 13.5,11.5 C 14.1667,11.8333 14.8333,12.1667 15.5,12.5C 15.5,13.5 15.5,14.5 15.5,15.5C 15.1667,15.5 14.8333,15.5 14.5,15.5C 13.609,16.1098 12.609,16.4431 11.5,16.5C 11.5,16.1667 11.5,15.8333 11.5,15.5C 12.6737,14.4863 13.3404,13.153 13.5,11.5 Z"/></g>
<g><path style="opacity:1" fill="#dfd3bd" d="M 21.5,11.5 C 21.8333,12.8333 22.1667,14.1667 22.5,15.5C 21.8333,15.1667 21.1667,14.8333 20.5,14.5C 20.2627,13.209 20.596,12.209 21.5,11.5 Z"/></g>
<g><path style="opacity:1" fill="#6b706c" d="M 21.5,9.5 C 21.8333,9.5 22.1667,9.5 22.5,9.5C 22.4326,10.9587 22.7659,12.2921 23.5,13.5C 23.5,14.1667 23.5,14.8333 23.5,15.5C 23.1667,15.5 22.8333,15.5 22.5,15.5C 22.1667,14.1667 21.8333,12.8333 21.5,11.5C 21.5,11.1667 21.5,10.8333 21.5,10.5C 21.5,10.1667 21.5,9.83333 21.5,9.5 Z"/></g>
<g><path style="opacity:1" fill="#cec499" d="M 27.5,12.5 C 27.5,11.8333 27.8333,11.5 28.5,11.5C 29.5,11.5 30.5,11.5 31.5,11.5C 32.3382,11.8417 32.6716,12.5084 32.5,13.5C 30.7839,13.3713 29.1172,13.038 27.5,12.5 Z"/></g>
<g><path style="opacity:1" fill="#5e8088" d="M 33.5,11.5 C 34.791,11.2627 35.791,11.596 36.5,12.5C 35.791,13.404 34.791,13.7373 33.5,13.5C 33.5,12.8333 33.5,12.1667 33.5,11.5 Z"/></g>
<g><path style="opacity:1" fill="#d3c2a1" d="M 38.5,9.5 C 39.8333,9.5 40.5,10.1667 40.5,11.5C 40.5674,12.9587 40.2341,14.2921 39.5,15.5C 38.5084,15.6716 37.8417,15.3382 37.5,14.5C 37.5,13.8333 37.5,13.1667 37.5,12.5C 38.404,11.791 38.7373,10.791 38.5,9.5 Z"/></g>
<g><path style="opacity:1" fill="#52441f" d="M 44.5,11.5 C 45.1667,11.5 45.8333,11.5 46.5,11.5C 46.5,12.1667 46.5,12.8333 46.5,13.5C 46.3284,14.4916 46.6618,15.1583 47.5,15.5C 47.5,15.8333 47.5,16.1667 47.5,16.5C 46.1667,16.5 44.8333,16.5 43.5,16.5C 44.3007,14.9582 44.634,13.2915 44.5,11.5 Z"/></g>
<g><path style="opacity:1" fill="#4e5353" d="M 61.5,10.5 C 62.404,11.209 62.7373,12.209 62.5,13.5C 61.8333,13.8333 61.1667,14.1667 60.5,14.5C 60.5,14.1667 60.5,13.8333 60.5,13.5C 61.1098,12.609 61.4431,11.609 61.5,10.5 Z"/></g>
<g><path style="opacity:1" fill="#cecaac" d="M 64.5,9.5 C 66.1765,10.1834 66.8432,11.5168 66.5,13.5C 66.1667,13.5 65.8333,13.5 65.5,13.5C 65.1667,13.5 64.8333,13.5 64.5,13.5C 64.5,12.1667 64.5,10.8333 64.5,9.5 Z"/></g>
<g><path style="opacity:1" fill="#b1a17d" d="M 64.5,9.5 C 64.5,9.16667 64.5,8.83333 64.5,8.5C 65.5,8.5 66.5,8.5 67.5,8.5C 67.5,9.83333 67.5,11.1667 67.5,12.5C 67.5,12.8333 67.5,13.1667 67.5,13.5C 67.1667,13.5 66.8333,13.5 66.5,13.5C 66.8432,11.5168 66.1765,10.1834 64.5,9.5 Z"/></g>
<g><path style="opacity:1" fill="#4d6779" d="M 76.5,14.5 C 75.5,14.1667 74.8333,13.5 74.5,12.5C 74.3691,11.6236 74.7025,10.9569 75.5,10.5C 76.4287,11.6888 76.762,13.0222 76.5,14.5 Z"/></g>
<g><path style="opacity:1" fill="#6c7f8f" d="M 86.5,11.5 C 86.573,13.0269 85.9063,14.0269 84.5,14.5C 84.2852,12.8212 84.9519,11.8212 86.5,11.5 Z"/></g>
<g><path style="opacity:1" fill="#a19787" d="M 102.5,9.5 C 102.833,9.5 103.167,9.5 103.5,9.5C 103.557,10.609 103.89,11.609 104.5,12.5C 103.833,12.5 103.5,12.8333 103.5,13.5C 103.167,13.5 102.833,13.5 102.5,13.5C 102.5,12.1667 102.5,10.8333 102.5,9.5 Z"/></g>
<g><path style="opacity:1" fill="#525858" d="M 116.5,15.5 C 116.158,16.3382 115.492,16.6716 114.5,16.5C 114.238,15.0222 114.571,13.6888 115.5,12.5C 116.386,13.325 116.719,14.325 116.5,15.5 Z"/></g>
<g><path style="opacity:1" fill="#e0c49b" d="M 117.5,9.5 C 118.167,9.5 118.833,9.5 119.5,9.5C 119.5,11.1667 119.5,12.8333 119.5,14.5C 118.833,14.5 118.167,14.5 117.5,14.5C 117.5,12.8333 117.5,11.1667 117.5,9.5 Z"/></g>
<g><path style="opacity:1" fill="#907b5e" d="M 119.5,9.5 C 119.833,9.5 120.167,9.5 120.5,9.5C 120.232,11.099 120.566,12.4324 121.5,13.5C 121.5,13.8333 121.5,14.1667 121.5,14.5C 121.167,14.5 120.833,14.5 120.5,14.5C 120.167,14.5 119.833,14.5 119.5,14.5C 119.5,12.8333 119.5,11.1667 119.5,9.5 Z"/></g>
<g><path style="opacity:1" fill="#55575b" d="M 121.5,12.5 C 122.167,12.5 122.833,12.5 123.5,12.5C 123.737,13.791 123.404,14.791 122.5,15.5C 122.5,14.8333 122.167,14.5 121.5,14.5C 121.5,14.1667 121.5,13.8333 121.5,13.5C 121.5,13.1667 121.5,12.8333 121.5,12.5 Z"/></g>
<g><path style="opacity:1" fill="#d6c285" d="M 128.5,10.5 C 129.167,10.8333 129.833,11.1667 130.5,11.5C 130.5,12.8333 130.5,14.1667 130.5,15.5C 130.167,15.5 129.833,15.5 129.5,15.5C 128.5,15.5 127.5,15.5 126.5,15.5C 126.5,15.1667 126.5,14.8333 126.5,14.5C 127.167,13.1667 127.833,11.8333 128.5,10.5 Z"/></g>
<g><path style="opacity:1" fill="#d7c8a4" d="M 19.5,10.5 C 19.8333,10.5 20.1667,10.5 20.5,10.5C 20.8333,10.5 21.1667,10.5 21.5,10.5C 21.5,10.8333 21.5,11.1667 21.5,11.5C 20.596,12.209 20.2627,13.209 20.5,14.5C 19.6618,14.8417 19.3284,15.5084 19.5,16.5C 19.5,17.5 19.5,18.5 19.5,19.5C 18.8333,19.5 18.5,19.1667 18.5,18.5C 18.3713,16.7839 18.038,15.1172 17.5,13.5C 19.0481,13.1788 19.7148,12.1788 19.5,10.5 Z"/></g>
<g><path style="opacity:1" fill="#decaa4" d="M 26.5,12.5 C 26.8333,12.5 27.1667,12.5 27.5,12.5C 29.1172,13.038 30.7839,13.3713 32.5,13.5C 32.5,14.1667 32.5,14.8333 32.5,15.5C 32.1667,15.5 31.8333,15.5 31.5,15.5C 30.8333,15.5 30.1667,15.5 29.5,15.5C 28.5084,15.3284 27.8417,15.6618 27.5,16.5C 26.8333,16.5 26.5,16.1667 26.5,15.5C 26.5,14.5 26.5,13.5 26.5,12.5 Z"/></g>
<g><path style="opacity:1" fill="#597571" d="M 36.5,12.5 C 36.8333,12.5 37.1667,12.5 37.5,12.5C 37.5,13.1667 37.5,13.8333 37.5,14.5C 37.1667,14.5 36.8333,14.5 36.5,14.5C 35.5,15.8333 34.5,15.8333 33.5,14.5C 33.5,14.1667 33.5,13.8333 33.5,13.5C 34.791,13.7373 35.791,13.404 36.5,12.5 Z"/></g>
<g><path style="opacity:1" fill="#4c4f4b" d="M 49.5,12.5 C 50.1667,12.5 50.5,12.8333 50.5,13.5C 51.1098,14.391 51.4431,15.391 51.5,16.5C 51.1667,16.5 50.8333,16.5 50.5,16.5C 50.5,15.8333 50.1667,15.5 49.5,15.5C 49.5,14.5 49.5,13.5 49.5,12.5 Z"/></g>
<g><path style="opacity:1" fill="#554731" d="M 70.5,11.5 C 70.5,12.1667 70.5,12.8333 70.5,13.5C 70.5,14.1667 70.5,14.8333 70.5,15.5C 69.5,15.5 68.5,15.5 67.5,15.5C 67.5,14.8333 67.5,14.1667 67.5,13.5C 67.5,13.1667 67.5,12.8333 67.5,12.5C 68.609,12.4431 69.609,12.1098 70.5,11.5 Z"/></g>
<g><path style="opacity:1" fill="#a27d55" d="M 70.5,13.5 C 71.5,13.5 72.5,13.5 73.5,13.5C 73.5,14.8333 73.5,16.1667 73.5,17.5C 72.2223,17.2178 71.2223,16.5511 70.5,15.5C 70.5,14.8333 70.5,14.1667 70.5,13.5 Z"/></g>
<g><path style="opacity:1" fill="#48554d" d="M 73.5,12.5 C 73.8333,12.5 74.1667,12.5 74.5,12.5C 74.8333,13.5 75.5,14.1667 76.5,14.5C 75.6993,16.0418 75.366,17.7085 75.5,19.5C 74.8333,19.5 74.1667,19.5 73.5,19.5C 73.5,18.8333 73.5,18.1667 73.5,17.5C 73.5,16.1667 73.5,14.8333 73.5,13.5C 73.5,13.1667 73.5,12.8333 73.5,12.5 Z"/></g>
<g><path style="opacity:1" fill="#92735e" d="M 87.5,12.5 C 87.8333,12.5 88.1667,12.5 88.5,12.5C 89.1667,12.5 89.8333,12.5 90.5,12.5C 90.5,12.8333 90.5,13.1667 90.5,13.5C 89.2616,15.2143 88.595,17.2143 88.5,19.5C 88.1667,19.5 87.8333,19.5 87.5,19.5C 87.5,18.1667 87.5,16.8333 87.5,15.5C 87.5,14.5 87.5,13.5 87.5,12.5 Z"/></g>
<g><path style="opacity:1" fill="#6a4e30" d="M 104.5,12.5 C 105.167,12.5 105.5,12.8333 105.5,13.5C 106.234,14.7079 106.567,16.0413 106.5,17.5C 106.167,17.5 105.833,17.5 105.5,17.5C 105.5,16.1667 104.833,15.5 103.5,15.5C 103.5,14.8333 103.5,14.1667 103.5,13.5C 103.5,12.8333 103.833,12.5 104.5,12.5 Z"/></g>
<g><path style="opacity:1" fill="#724f2c" d="M 111.5,12.5 C 111.5,12.8333 111.5,13.1667 111.5,13.5C 111.5,14.1667 111.5,14.8333 111.5,15.5C 110.833,15.5 110.167,15.5 109.5,15.5C 109.167,15.5 108.833,15.5 108.5,15.5C 107.662,15.1583 107.328,14.4916 107.5,13.5C 108.167,13.5 108.833,13.5 109.5,13.5C 110.167,13.1667 110.833,12.8333 111.5,12.5 Z"/></g>
<g><path style="opacity:1" fill="#606c7f" d="M 123.5,12.5 C 124.167,12.5 124.5,12.8333 124.5,13.5C 124.473,15.1993 123.806,16.5326 122.5,17.5C 121.167,16.8333 121.167,16.1667 122.5,15.5C 123.404,14.791 123.737,13.791 123.5,12.5 Z"/></g>
<g><path style="opacity:1" fill="#76787e" d="M 133.5,12.5 C 133.5,13.5 133.5,14.5 133.5,15.5C 130.833,14.5 130.833,13.5 133.5,12.5 Z"/></g>
<g><path style="opacity:1" fill="#ceb89d" d="M 137.5,10.5 C 139.104,11.287 139.771,12.6203 139.5,14.5C 139.167,14.5 138.833,14.5 138.5,14.5C 138.631,13.6236 138.298,12.9569 137.5,12.5C 136.224,13.6136 136.224,14.6136 137.5,15.5C 137.5,15.8333 137.5,16.1667 137.5,16.5C 136.833,16.5 136.167,16.5 135.5,16.5C 135.158,15.6618 134.492,15.3284 133.5,15.5C 133.5,14.5 133.5,13.5 133.5,12.5C 133.5,12.1667 133.5,11.8333 133.5,11.5C 133.833,11.5 134.167,11.5 134.5,11.5C 135.791,11.7373 136.791,11.404 137.5,10.5 Z"/></g>
<g><path style="opacity:1" fill="#e5debf" d="M 138.5,14.5 C 138.5,15.1667 138.167,15.5 137.5,15.5C 136.224,14.6136 136.224,13.6136 137.5,12.5C 138.298,12.9569 138.631,13.6236 138.5,14.5 Z"/></g>
<g><path style="opacity:0.978" fill="#cab58b" d="M 142.5,12.5 C 143.167,12.5 143.833,12.5 144.5,12.5C 144.833,13.1667 145.167,13.8333 145.5,14.5C 144.596,15.209 144.263,16.209 144.5,17.5C 144.167,17.5 143.833,17.5 143.5,17.5C 143.371,15.7839 143.038,14.1172 142.5,12.5 Z"/></g>
<g><path style="opacity:1" fill="#efd0ac" d="M 20.5,14.5 C 21.1667,14.8333 21.8333,15.1667 22.5,15.5C 21.791,16.404 20.791,16.7373 19.5,16.5C 19.3284,15.5084 19.6618,14.8417 20.5,14.5 Z"/></g>
<g><path style="opacity:1" fill="#6a7370" d="M 25.5,9.5 C 25.8333,9.5 26.1667,9.5 26.5,9.5C 26.5,10.5 26.5,11.5 26.5,12.5C 26.5,13.5 26.5,14.5 26.5,15.5C 26.1667,15.5 25.8333,15.5 25.5,15.5C 24.8333,15.5 24.1667,15.5 23.5,15.5C 23.5,14.8333 23.5,14.1667 23.5,13.5C 24.6737,12.4863 25.3404,11.153 25.5,9.5 Z"/></g>
<g><path style="opacity:1" fill="#575c56" d="M 40.5,11.5 C 40.8333,11.5 41.1667,11.5 41.5,11.5C 41.2627,12.791 41.596,13.791 42.5,14.5C 42.5,14.8333 42.5,15.1667 42.5,15.5C 41.5655,16.5676 41.2322,17.901 41.5,19.5C 41.1667,19.5 40.8333,19.5 40.5,19.5C 40.7373,18.209 40.404,17.209 39.5,16.5C 39.5,16.1667 39.5,15.8333 39.5,15.5C 40.2341,14.2921 40.5674,12.9587 40.5,11.5 Z"/></g>
<g><path style="opacity:1" fill="#9e9278" d="M 43.5,11.5 C 43.8333,11.5 44.1667,11.5 44.5,11.5C 44.634,13.2915 44.3007,14.9582 43.5,16.5C 43.5,16.8333 43.5,17.1667 43.5,17.5C 42.6618,17.1583 42.3284,16.4916 42.5,15.5C 42.5,15.1667 42.5,14.8333 42.5,14.5C 43.1098,13.609 43.4431,12.609 43.5,11.5 Z"/></g>
<g><path style="opacity:1" fill="#a69465" d="M 48.5,12.5 C 48.8333,12.5 49.1667,12.5 49.5,12.5C 49.5,13.5 49.5,14.5 49.5,15.5C 48.8333,15.5 48.1667,15.5 47.5,15.5C 46.6618,15.1583 46.3284,14.4916 46.5,13.5C 47.9245,15.0311 48.5912,14.6977 48.5,12.5 Z"/></g>
<g><path style="opacity:1" fill="#a7884f" d="M 57.5,13.5 C 57.8333,13.5 58.1667,13.5 58.5,13.5C 58.8333,13.5 59.1667,13.5 59.5,13.5C 59.5,14.1667 59.5,14.8333 59.5,15.5C 58.8333,15.5 58.5,15.8333 58.5,16.5C 57.8333,16.5 57.5,16.1667 57.5,15.5C 57.5,14.8333 57.5,14.1667 57.5,13.5 Z"/></g>
<g><path style="opacity:1" fill="#534a3a" d="M 59.5,13.5 C 59.8333,13.5 60.1667,13.5 60.5,13.5C 60.5,13.8333 60.5,14.1667 60.5,14.5C 60.8333,15.1667 61.1667,15.8333 61.5,16.5C 61.5,16.8333 61.5,17.1667 61.5,17.5C 60.5,17.1667 59.8333,16.5 59.5,15.5C 59.5,14.8333 59.5,14.1667 59.5,13.5 Z"/></g>
<g><path style="opacity:1" fill="#555643" d="M 59.5,9.5 C 59.5,9.16667 59.5,8.83333 59.5,8.5C 61.1667,8.5 62.8333,8.5 64.5,8.5C 64.5,8.83333 64.5,9.16667 64.5,9.5C 64.5,10.8333 64.5,12.1667 64.5,13.5C 64.5,14.5 64.5,15.5 64.5,16.5C 64.1667,16.5 63.8333,16.5 63.5,16.5C 63.5,15.5 63.5,14.5 63.5,13.5C 63.5,12.1667 63.5,10.8333 63.5,9.5C 62.5,9.5 61.5,9.5 60.5,9.5C 60.1667,9.5 59.8333,9.5 59.5,9.5 Z"/></g>
<g><path style="opacity:1" fill="#a08d5b" d="M 65.5,13.5 C 65.8333,13.5 66.1667,13.5 66.5,13.5C 66.8333,13.5 67.1667,13.5 67.5,13.5C 67.5,14.1667 67.5,14.8333 67.5,15.5C 65.7973,16.6602 65.1307,15.9935 65.5,13.5 Z"/></g>
<g><path style="opacity:1" fill="#4e3e26" d="M 80.5,11.5 C 80.5,12.1667 80.5,12.8333 80.5,13.5C 80.5569,14.609 80.8902,15.609 81.5,16.5C 80.8333,16.5 80.1667,16.5 79.5,16.5C 79.5,15.1667 79.5,13.8333 79.5,12.5C 79.5,11.8333 79.8333,11.5 80.5,11.5 Z"/></g>
<g><path style="opacity:1" fill="#636673" d="M 86.5,11.5 C 86.8333,11.5 87.1667,11.5 87.5,11.5C 87.5,11.8333 87.5,12.1667 87.5,12.5C 87.5,13.5 87.5,14.5 87.5,15.5C 86.609,16.1098 85.609,16.4431 84.5,16.5C 84.5,15.8333 84.5,15.1667 84.5,14.5C 85.9063,14.0269 86.573,13.0269 86.5,11.5 Z"/></g>
<g><path style="opacity:1" fill="#74532b" d="M 96.5,13.5 C 96.5,14.1667 96.5,14.8333 96.5,15.5C 95.8333,15.5 95.1667,15.5 94.5,15.5C 93.1667,15.5 92.5,14.8333 92.5,13.5C 93.1667,13.5 93.8333,13.5 94.5,13.5C 95.3957,12.4937 96.0623,12.4937 96.5,13.5 Z"/></g>
<g><path style="opacity:1" fill="#a48b62" d="M 98.5,11.5 C 98.8333,11.5 99.1667,11.5 99.5,11.5C 99.5,12.5 99.5,13.5 99.5,14.5C 99.5,14.8333 99.5,15.1667 99.5,15.5C 98.8333,15.5 98.1667,15.5 97.5,15.5C 97.5,14.8333 97.5,14.1667 97.5,13.5C 98.3382,13.1583 98.6716,12.4916 98.5,11.5 Z"/></g>
<g><path style="opacity:1" fill="#837a59" d="M 101.5,13.5 C 101.833,13.5 102.167,13.5 102.5,13.5C 102.833,13.5 103.167,13.5 103.5,13.5C 103.5,14.1667 103.5,14.8333 103.5,15.5C 103.5,16.8333 103.5,18.1667 103.5,19.5C 102.167,19.5 101.5,18.8333 101.5,17.5C 101.5,16.5 101.5,15.5 101.5,14.5C 101.5,14.1667 101.5,13.8333 101.5,13.5 Z"/></g>
<g><path style="opacity:1" fill="#646053" d="M 15.5,12.5 C 15.8333,12.5 16.1667,12.5 16.5,12.5C 17.1667,12.5 17.5,12.8333 17.5,13.5C 18.038,15.1172 18.3713,16.7839 18.5,18.5C 17.391,18.4431 16.391,18.1098 15.5,17.5C 15.5,16.8333 15.5,16.1667 15.5,15.5C 15.5,14.5 15.5,13.5 15.5,12.5 Z"/></g>
<g><path style="opacity:1" fill="#9d8b51" d="M 29.5,15.5 C 30.1667,15.5 30.8333,15.5 31.5,15.5C 30.2801,17.2837 30.2801,18.9504 31.5,20.5C 31.5,21.1667 31.5,21.8333 31.5,22.5C 30.8333,22.1667 30.1667,21.8333 29.5,21.5C 29.5,20.8333 29.5,20.1667 29.5,19.5C 29.5,18.1667 29.5,16.8333 29.5,15.5 Z"/></g>
<g><path style="opacity:1" fill="#494342" d="M 33.5,14.5 C 34.5,15.8333 35.5,15.8333 36.5,14.5C 36.5,15.5 36.5,16.5 36.5,17.5C 35.7321,18.2625 35.2321,19.2625 35,20.5C 34.7679,19.2625 34.2679,18.2625 33.5,17.5C 33.5,16.8333 33.5,16.1667 33.5,15.5C 33.5,15.1667 33.5,14.8333 33.5,14.5 Z"/></g>
<g><path style="opacity:1" fill="#a88a5c" d="M 47.5,15.5 C 48.1667,15.5 48.8333,15.5 49.5,15.5C 50.1667,15.5 50.5,15.8333 50.5,16.5C 50.5,17.8333 49.8333,18.5 48.5,18.5C 47.6618,18.1583 47.3284,17.4916 47.5,16.5C 47.5,16.1667 47.5,15.8333 47.5,15.5 Z"/></g>
<g><path style="opacity:1" fill="#5b5e61" d="M 50.5,13.5 C 51.1667,13.5 51.8333,13.5 52.5,13.5C 52.7678,15.099 52.4345,16.4324 51.5,17.5C 51.5,17.1667 51.5,16.8333 51.5,16.5C 51.4431,15.391 51.1098,14.391 50.5,13.5 Z"/></g>
<g><path style="opacity:1" fill="#54686a" d="M 62.5,13.5 C 62.8333,13.5 63.1667,13.5 63.5,13.5C 63.5,14.5 63.5,15.5 63.5,16.5C 62.8333,16.5 62.1667,16.5 61.5,16.5C 61.1667,15.8333 60.8333,15.1667 60.5,14.5C 61.1667,14.1667 61.8333,13.8333 62.5,13.5 Z"/></g>
<g><path style="opacity:1" fill="#86735e" d="M 77.5,13.5 C 77.8333,13.5 78.1667,13.5 78.5,13.5C 78.1667,14.8333 77.8333,16.1667 77.5,17.5C 77.5,18.1667 77.5,18.8333 77.5,19.5C 76.8333,19.5 76.1667,19.5 75.5,19.5C 75.366,17.7085 75.6993,16.0418 76.5,14.5C 77.1667,14.5 77.5,14.1667 77.5,13.5 Z"/></g>
<g><path style="opacity:1" fill="#99714d" d="M 82.5,12.5 C 82.8333,12.5 83.1667,12.5 83.5,12.5C 83.5,13.1667 83.5,13.8333 83.5,14.5C 83.5674,15.9587 83.2341,17.2921 82.5,18.5C 81.6618,18.1583 81.3284,17.4916 81.5,16.5C 80.8902,15.609 80.5569,14.609 80.5,13.5C 81.4916,13.6716 82.1583,13.3382 82.5,12.5 Z"/></g>
<g><path style="opacity:1" fill="#a88b57" d="M 90.5,13.5 C 91.1667,13.5 91.8333,13.5 92.5,13.5C 92.5,14.8333 93.1667,15.5 94.5,15.5C 94.7148,17.1788 94.0481,18.1788 92.5,18.5C 91.8333,16.8333 91.1667,15.1667 90.5,13.5 Z"/></g>
<g><path style="opacity:1" fill="#be8c56" d="M 106.5,12.5 C 106.833,12.5 107.167,12.5 107.5,12.5C 107.5,12.8333 107.5,13.1667 107.5,13.5C 107.328,14.4916 107.662,15.1583 108.5,15.5C 108.5,16.8333 107.833,17.5 106.5,17.5C 106.567,16.0413 106.234,14.7079 105.5,13.5C 106.167,13.5 106.5,13.1667 106.5,12.5 Z"/></g>
<g><path style="opacity:1" fill="#aa8e62" d="M 111.5,13.5 C 112.167,13.5 112.833,13.5 113.5,13.5C 113.232,15.099 113.566,16.4324 114.5,17.5C 114.5,18.1667 114.5,18.8333 114.5,19.5C 113.5,19.5 112.5,19.5 111.5,19.5C 111.5,18.1667 111.5,16.8333 111.5,15.5C 111.5,14.8333 111.5,14.1667 111.5,13.5 Z"/></g>
<g><path style="opacity:1" fill="#af944f" d="M 117.5,14.5 C 118.167,14.5 118.833,14.5 119.5,14.5C 119.843,16.4832 119.176,17.8166 117.5,18.5C 117.5,17.5 117.5,16.5 117.5,15.5C 117.5,15.1667 117.5,14.8333 117.5,14.5 Z"/></g>
<g><path style="opacity:1" fill="#63706f" d="M 141.5,13.5 C 141.5,14.1667 141.5,14.8333 141.5,15.5C 141.5,16.1667 141.167,16.5 140.5,16.5C 139.662,16.1583 139.328,15.4916 139.5,14.5C 140.167,14.1667 140.833,13.8333 141.5,13.5 Z"/></g>
<g><path style="opacity:1" fill="#464831" d="M 23.5,15.5 C 24.1667,15.5 24.8333,15.5 25.5,15.5C 25.5,16.1667 25.5,16.8333 25.5,17.5C 25.0679,18.7095 24.4013,19.7095 23.5,20.5C 23.5,20.1667 23.5,19.8333 23.5,19.5C 23.5,18.1667 23.5,16.8333 23.5,15.5 Z"/></g>
<g><path style="opacity:1" fill="#a7916a" d="M 36.5,14.5 C 36.8333,14.5 37.1667,14.5 37.5,14.5C 37.8417,15.3382 38.5084,15.6716 39.5,15.5C 39.5,15.8333 39.5,16.1667 39.5,16.5C 38.962,18.1172 38.6287,19.7839 38.5,21.5C 37.8333,21.5 37.5,21.8333 37.5,22.5C 37.1667,22.5 36.8333,22.5 36.5,22.5C 36.5,20.8333 36.5,19.1667 36.5,17.5C 36.5,16.5 36.5,15.5 36.5,14.5 Z"/></g>
<g><path style="opacity:1" fill="#3f3727" d="M 43.5,17.5 C 43.5,17.1667 43.5,16.8333 43.5,16.5C 44.8333,16.5 46.1667,16.5 47.5,16.5C 47.3284,17.4916 47.6618,18.1583 48.5,18.5C 48.5,18.8333 48.5,19.1667 48.5,19.5C 48.1667,19.5 47.8333,19.5 47.5,19.5C 47.1667,19.5 46.8333,19.5 46.5,19.5C 46.1788,17.9519 45.1788,17.2852 43.5,17.5 Z"/></g>
<g><path style="opacity:1" fill="#484234" d="M 47.5,9.5 C 47.5,9.16667 47.5,8.83333 47.5,8.5C 49.5,8.5 51.5,8.5 53.5,8.5C 53.5,8.83333 53.5,9.16667 53.5,9.5C 53.5,10.8333 53.5,12.1667 53.5,13.5C 53.5,15.5 53.5,17.5 53.5,19.5C 52.8333,19.5 52.1667,19.5 51.5,19.5C 51.5,18.8333 51.5,18.1667 51.5,17.5C 52.4345,16.4324 52.7678,15.099 52.5,13.5C 52.5,12.5 52.5,11.5 52.5,10.5C 51.0813,9.54885 49.4147,9.21552 47.5,9.5 Z"/></g>
<g><path style="opacity:1" fill="#b48f53" d="M 53.5,13.5 C 54.1667,13.5 54.8333,13.5 55.5,13.5C 55.5,15.5 55.5,17.5 55.5,19.5C 54.8333,19.5 54.1667,19.5 53.5,19.5C 53.5,17.5 53.5,15.5 53.5,13.5 Z"/></g>
<g><path style="opacity:1" fill="#ae9561" d="M 59.5,15.5 C 59.8333,16.5 60.5,17.1667 61.5,17.5C 61.5,18.1667 61.5,18.8333 61.5,19.5C 59.5,19.5 58.5,18.5 58.5,16.5C 58.5,15.8333 58.8333,15.5 59.5,15.5 Z"/></g>
<g><path style="opacity:1" fill="#a39172" d="M 64.5,13.5 C 64.8333,13.5 65.1667,13.5 65.5,13.5C 65.1307,15.9935 65.7973,16.6602 67.5,15.5C 67.5,16.5 67.5,17.5 67.5,18.5C 66.791,19.404 65.791,19.7373 64.5,19.5C 64.5,18.5 64.5,17.5 64.5,16.5C 64.5,15.5 64.5,14.5 64.5,13.5 Z"/></g>
<g><path style="opacity:1" fill="#414d4b" d="M 67.5,15.5 C 68.5,15.5 69.5,15.5 70.5,15.5C 70.5,16.8333 70.5,18.1667 70.5,19.5C 70.1667,19.5 69.8333,19.5 69.5,19.5C 69.5,18.8333 69.1667,18.5 68.5,18.5C 68.1667,18.5 67.8333,18.5 67.5,18.5C 67.5,17.5 67.5,16.5 67.5,15.5 Z"/></g>
<g><path style="opacity:1" fill="#63462d" d="M 79.5,12.5 C 79.5,13.8333 79.5,15.1667 79.5,16.5C 78.8333,16.5 78.5,16.8333 78.5,17.5C 78.1667,17.5 77.8333,17.5 77.5,17.5C 77.8333,16.1667 78.1667,14.8333 78.5,13.5C 78.5,12.8333 78.8333,12.5 79.5,12.5 Z"/></g>
<g><path style="opacity:1" fill="#79694a" d="M 96.5,13.5 C 96.8333,13.5 97.1667,13.5 97.5,13.5C 97.5,14.1667 97.5,14.8333 97.5,15.5C 97.2852,17.1788 97.9519,18.1788 99.5,18.5C 99.5,18.8333 99.5,19.1667 99.5,19.5C 98.5,19.5 97.5,19.5 96.5,19.5C 96.5,18.1667 96.5,16.8333 96.5,15.5C 96.5,14.8333 96.5,14.1667 96.5,13.5 Z"/></g>
<g><path style="opacity:1" fill="#ac965b" d="M 97.5,15.5 C 98.1667,15.5 98.8333,15.5 99.5,15.5C 99.5,16.5 99.5,17.5 99.5,18.5C 97.9519,18.1788 97.2852,17.1788 97.5,15.5 Z"/></g>
<g><path style="opacity:1" fill="#576358" d="M 99.5,14.5 C 100.167,14.5 100.833,14.5 101.5,14.5C 101.5,15.5 101.5,16.5 101.5,17.5C 100.833,18.1667 100.167,18.8333 99.5,19.5C 99.5,19.1667 99.5,18.8333 99.5,18.5C 99.5,17.5 99.5,16.5 99.5,15.5C 99.5,15.1667 99.5,14.8333 99.5,14.5 Z"/></g>
<g><path style="opacity:1" fill="#a17e5c" d="M 108.5,15.5 C 108.833,15.5 109.167,15.5 109.5,15.5C 109.715,17.1788 109.048,18.1788 107.5,18.5C 106.833,18.5 106.5,18.1667 106.5,17.5C 107.833,17.5 108.5,16.8333 108.5,15.5 Z"/></g>
<g><path style="opacity:1" fill="#444d5e" d="M 124.5,13.5 C 124.833,13.5 125.167,13.5 125.5,13.5C 125.5,13.8333 125.5,14.1667 125.5,14.5C 125.5,15.5 125.5,16.5 125.5,17.5C 125.167,17.5 124.833,17.5 124.5,17.5C 123.833,17.5 123.167,17.5 122.5,17.5C 123.806,16.5326 124.473,15.1993 124.5,13.5 Z"/></g>
<g><path style="opacity:1" fill="#9f7e3f" d="M 126.5,15.5 C 127.5,15.5 128.5,15.5 129.5,15.5C 129.5,16.1667 129.5,16.8333 129.5,17.5C 127.824,18.1834 127.157,19.5168 127.5,21.5C 126.539,19.7354 126.205,17.7354 126.5,15.5 Z"/></g>
<g><path style="opacity:1" fill="#a28755" d="M 129.5,15.5 C 129.833,15.5 130.167,15.5 130.5,15.5C 130.5,16.8333 131.167,17.5 132.5,17.5C 132.5,17.8333 132.5,18.1667 132.5,18.5C 132.167,18.5 131.833,18.5 131.5,18.5C 131.167,18.5 130.833,18.5 130.5,18.5C 130.167,18.5 129.833,18.5 129.5,18.5C 129.5,18.1667 129.5,17.8333 129.5,17.5C 129.5,16.8333 129.5,16.1667 129.5,15.5 Z"/></g>
<g><path style="opacity:1" fill="#b69759" d="M 133.5,15.5 C 134.492,15.3284 135.158,15.6618 135.5,16.5C 135.5,16.8333 135.5,17.1667 135.5,17.5C 135.167,17.5 134.833,17.5 134.5,17.5C 133.833,17.8333 133.167,18.1667 132.5,18.5C 132.5,18.1667 132.5,17.8333 132.5,17.5C 132.833,16.8333 133.167,16.1667 133.5,15.5 Z"/></g>
<g><path style="opacity:1" fill="#43574c" d="M 138.5,14.5 C 138.833,14.5 139.167,14.5 139.5,14.5C 139.328,15.4916 139.662,16.1583 140.5,16.5C 139.791,17.404 138.791,17.7373 137.5,17.5C 137.5,17.1667 137.5,16.8333 137.5,16.5C 137.5,16.1667 137.5,15.8333 137.5,15.5C 138.167,15.5 138.5,15.1667 138.5,14.5 Z"/></g>
<g><path style="opacity:0.961" fill="#c5a973" d="M 145.5,14.5 C 146.78,15.9313 148.447,16.5979 150.5,16.5C 150.5,17.1667 150.833,17.5 151.5,17.5C 151.5,17.8333 151.5,18.1667 151.5,18.5C 150.167,18.5 148.833,18.5 147.5,18.5C 146.791,17.596 145.791,17.2627 144.5,17.5C 144.263,16.209 144.596,15.209 145.5,14.5 Z"/></g>
<g><path style="opacity:0.969" fill="#afa57c" d="M 157.5,17.5 C 155.5,17.5 153.5,17.5 151.5,17.5C 150.833,17.5 150.5,17.1667 150.5,16.5C 153.215,14.9243 155.548,15.2576 157.5,17.5 Z"/></g>
<g><path style="opacity:1" fill="#d0b99e" d="M 11.5,15.5 C 11.5,15.8333 11.5,16.1667 11.5,16.5C 9.97306,16.427 8.97306,17.0937 8.5,18.5C 6.88277,17.962 5.2161,17.6287 3.5,17.5C 5.96082,16.469 8.62749,15.8023 11.5,15.5 Z"/></g>
<g><path style="opacity:1" fill="#d7b578" d="M 14.5,15.5 C 14.6602,17.1992 14.4935,18.8659 14,20.5C 12.5993,18.8078 10.7659,18.1412 8.5,18.5C 8.97306,17.0937 9.97306,16.427 11.5,16.5C 12.609,16.4431 13.609,16.1098 14.5,15.5 Z"/></g>
<g><path style="opacity:1" fill="#a1875b" d="M 25.5,15.5 C 25.8333,15.5 26.1667,15.5 26.5,15.5C 26.5,16.1667 26.8333,16.5 27.5,16.5C 27.5,17.1667 27.5,17.8333 27.5,18.5C 27.5,19.5 27.5,20.5 27.5,21.5C 27.1667,21.5 26.8333,21.5 26.5,21.5C 26.7678,19.901 26.4345,18.5676 25.5,17.5C 25.5,16.8333 25.5,16.1667 25.5,15.5 Z"/></g>
<g><path style="opacity:1" fill="#5c4a2d" d="M 29.5,15.5 C 29.5,16.8333 29.5,18.1667 29.5,19.5C 28.8333,19.1667 28.1667,18.8333 27.5,18.5C 27.5,17.8333 27.5,17.1667 27.5,16.5C 27.8417,15.6618 28.5084,15.3284 29.5,15.5 Z"/></g>
<g><path style="opacity:1" fill="#7a6b55" d="M 42.5,15.5 C 42.3284,16.4916 42.6618,17.1583 43.5,17.5C 43.5,17.8333 43.5,18.1667 43.5,18.5C 43.5,19.1667 43.1667,19.5 42.5,19.5C 42.1667,19.5 41.8333,19.5 41.5,19.5C 41.2322,17.901 41.5655,16.5676 42.5,15.5 Z"/></g>
<g><path style="opacity:1" fill="#3e474f" d="M 43.5,18.5 C 43.5,18.1667 43.5,17.8333 43.5,17.5C 45.1788,17.2852 46.1788,17.9519 46.5,19.5C 45.391,19.4431 44.391,19.1098 43.5,18.5 Z"/></g>
<g><path style="opacity:1" fill="#40483b" d="M 61.5,16.5 C 62.1667,16.5 62.8333,16.5 63.5,16.5C 63.8333,16.5 64.1667,16.5 64.5,16.5C 64.5,17.5 64.5,18.5 64.5,19.5C 63.8333,19.5 63.1667,19.5 62.5,19.5C 62.1667,19.5 61.8333,19.5 61.5,19.5C 61.5,18.8333 61.5,18.1667 61.5,17.5C 61.5,17.1667 61.5,16.8333 61.5,16.5 Z"/></g>
<g><path style="opacity:1" fill="#4c443b" d="M 87.5,15.5 C 87.5,16.8333 87.5,18.1667 87.5,19.5C 87.5,20.1667 87.1667,20.5 86.5,20.5C 86.6716,19.5084 86.3382,18.8417 85.5,18.5C 85.1667,17.8333 84.8333,17.1667 84.5,16.5C 85.609,16.4431 86.609,16.1098 87.5,15.5 Z"/></g>
<g><path style="opacity:1" fill="#564c36" d="M 90.5,13.5 C 91.1667,15.1667 91.8333,16.8333 92.5,18.5C 91.3652,19.1027 90.3652,19.4361 89.5,19.5C 89.1667,19.5 88.8333,19.5 88.5,19.5C 88.595,17.2143 89.2616,15.2143 90.5,13.5 Z"/></g>
<g><path style="opacity:1" fill="#45462b" d="M 94.5,15.5 C 95.1667,15.5 95.8333,15.5 96.5,15.5C 96.5,16.8333 96.5,18.1667 96.5,19.5C 95.8333,19.5 95.1667,19.5 94.5,19.5C 93.5084,19.6716 92.8417,19.3382 92.5,18.5C 94.0481,18.1788 94.7148,17.1788 94.5,15.5 Z"/></g>
<g><path style="opacity:1" fill="#504f37" d="M 116.5,15.5 C 116.833,15.5 117.167,15.5 117.5,15.5C 117.5,16.5 117.5,17.5 117.5,18.5C 117.5,18.8333 117.5,19.1667 117.5,19.5C 116.5,18.1667 115.5,18.1667 114.5,19.5C 114.5,18.8333 114.5,18.1667 114.5,17.5C 114.5,17.1667 114.5,16.8333 114.5,16.5C 115.492,16.6716 116.158,16.3382 116.5,15.5 Z"/></g>
<g><path style="opacity:1" fill="#504b45" d="M 120.5,14.5 C 120.833,14.5 121.167,14.5 121.5,14.5C 122.167,14.5 122.5,14.8333 122.5,15.5C 121.167,16.1667 121.167,16.8333 122.5,17.5C 123.167,17.5 123.833,17.5 124.5,17.5C 124.179,19.0481 123.179,19.7148 121.5,19.5C 120.699,17.9582 120.366,16.2915 120.5,14.5 Z"/></g>
<g><path style="opacity:1" fill="#3d5559" d="M 141.5,15.5 C 142.338,15.8417 142.672,16.5084 142.5,17.5C 141.999,19.246 141.332,20.246 140.5,20.5C 140.027,19.0937 139.027,18.427 137.5,18.5C 137.5,18.1667 137.5,17.8333 137.5,17.5C 138.791,17.7373 139.791,17.404 140.5,16.5C 141.167,16.5 141.5,16.1667 141.5,15.5 Z"/></g>
<g><path style="opacity:0.992" fill="#ca9858" d="M 143.5,17.5 C 143.833,17.5 144.167,17.5 144.5,17.5C 145.791,17.2627 146.791,17.596 147.5,18.5C 146.508,18.3284 145.842,18.6618 145.5,19.5C 144.833,19.5 144.167,19.5 143.5,19.5C 143.5,18.8333 143.5,18.1667 143.5,17.5 Z"/></g>
<g><path style="opacity:0.965" fill="#ab8c67" d="M 151.5,18.5 C 151.5,18.1667 151.5,17.8333 151.5,17.5C 153.5,17.5 155.5,17.5 157.5,17.5C 158.167,17.5 158.833,17.5 159.5,17.5C 159.5,17.8333 159.5,18.1667 159.5,18.5C 158.833,18.8333 158.167,19.1667 157.5,19.5C 155.735,18.5386 153.735,18.2053 151.5,18.5 Z"/></g>
<g><path style="opacity:0.961" fill="#99806c" d="M -0.5,18.5 C -0.5,18.1667 -0.5,17.8333 -0.5,17.5C 0.833333,17.5 2.16667,17.5 3.5,17.5C 5.2161,17.6287 6.88277,17.962 8.5,18.5C 8.5,18.8333 8.5,19.1667 8.5,19.5C 5.42994,19.6323 2.42994,19.299 -0.5,18.5 Z"/></g>
<g><path style="opacity:1" fill="#997b54" d="M 14.5,15.5 C 14.8333,15.5 15.1667,15.5 15.5,15.5C 15.5,16.1667 15.5,16.8333 15.5,17.5C 15.5,18.8333 15.5,20.1667 15.5,21.5C 15.5,22.8333 14.8333,23.5 13.5,23.5C 12.3777,21.4444 10.7111,20.1111 8.5,19.5C 8.5,19.1667 8.5,18.8333 8.5,18.5C 10.7659,18.1412 12.5993,18.8078 14,20.5C 14.4935,18.8659 14.6602,17.1992 14.5,15.5 Z"/></g>
<g><path style="opacity:1" fill="#a88c41" d="M 31.5,15.5 C 31.8333,15.5 32.1667,15.5 32.5,15.5C 32.3713,17.2161 32.038,18.8828 31.5,20.5C 30.2801,18.9504 30.2801,17.2837 31.5,15.5 Z"/></g>
<g><path style="opacity:1" fill="#7c6c3c" d="M 50.5,16.5 C 50.8333,16.5 51.1667,16.5 51.5,16.5C 51.5,16.8333 51.5,17.1667 51.5,17.5C 51.5,18.1667 51.5,18.8333 51.5,19.5C 50.5,19.5 49.5,19.5 48.5,19.5C 48.5,19.1667 48.5,18.8333 48.5,18.5C 49.8333,18.5 50.5,17.8333 50.5,16.5 Z"/></g>
<g><path style="opacity:1" fill="#715e30" d="M 55.5,13.5 C 55.8333,13.5 56.1667,13.5 56.5,13.5C 56.8333,13.5 57.1667,13.5 57.5,13.5C 57.5,14.1667 57.5,14.8333 57.5,15.5C 56.5655,16.5676 56.2322,17.901 56.5,19.5C 56.1667,19.5 55.8333,19.5 55.5,19.5C 55.5,17.5 55.5,15.5 55.5,13.5 Z"/></g>
<g><path style="opacity:1" fill="#372a0e" d="M 57.5,15.5 C 57.5,16.1667 57.8333,16.5 58.5,16.5C 58.5,18.5 59.5,19.5 61.5,19.5C 61.8333,19.5 62.1667,19.5 62.5,19.5C 62.5,19.8333 62.5,20.1667 62.5,20.5C 61.5,20.5 60.5,20.5 59.5,20.5C 58.609,19.8902 57.609,19.5569 56.5,19.5C 56.2322,17.901 56.5655,16.5676 57.5,15.5 Z"/></g>
<g><path style="opacity:1" fill="#928c63" d="M 70.5,15.5 C 71.2223,16.5511 72.2223,17.2178 73.5,17.5C 73.5,18.1667 73.5,18.8333 73.5,19.5C 72.5,19.5 71.5,19.5 70.5,19.5C 70.5,18.1667 70.5,16.8333 70.5,15.5 Z"/></g>
<g><path style="opacity:1" fill="#47453f" d="M 78.5,17.5 C 78.5,16.8333 78.8333,16.5 79.5,16.5C 80.1667,16.5 80.8333,16.5 81.5,16.5C 81.3284,17.4916 81.6618,18.1583 82.5,18.5C 82.5,18.8333 82.5,19.1667 82.5,19.5C 81.8333,19.5 81.1667,19.5 80.5,19.5C 80.5,18.1667 79.8333,17.5 78.5,17.5 Z"/></g>
<g><path style="opacity:1" fill="#977e5f" d="M 83.5,14.5 C 83.8333,14.5 84.1667,14.5 84.5,14.5C 84.5,15.1667 84.5,15.8333 84.5,16.5C 84.8333,17.1667 85.1667,17.8333 85.5,18.5C 84.791,19.404 83.791,19.7373 82.5,19.5C 82.5,19.1667 82.5,18.8333 82.5,18.5C 83.2341,17.2921 83.5674,15.9587 83.5,14.5 Z"/></g>
<g><path style="opacity:1" fill="#414a45" d="M 103.5,15.5 C 104.833,15.5 105.5,16.1667 105.5,17.5C 105.5,18.5 105.5,19.5 105.5,20.5C 104.833,20.1667 104.167,19.8333 103.5,19.5C 103.5,18.1667 103.5,16.8333 103.5,15.5 Z"/></g>
<g><path style="opacity:1" fill="#484c44" d="M 109.5,15.5 C 110.167,15.5 110.833,15.5 111.5,15.5C 111.5,16.8333 111.5,18.1667 111.5,19.5C 110.833,19.5 110.167,19.5 109.5,19.5C 108.508,19.6716 107.842,19.3382 107.5,18.5C 109.048,18.1788 109.715,17.1788 109.5,15.5 Z"/></g>
<g><path style="opacity:1" fill="#847a55" d="M 119.5,14.5 C 119.833,14.5 120.167,14.5 120.5,14.5C 120.366,16.2915 120.699,17.9582 121.5,19.5C 120.167,19.5 118.833,19.5 117.5,19.5C 117.5,19.1667 117.5,18.8333 117.5,18.5C 119.176,17.8166 119.843,16.4832 119.5,14.5 Z"/></g>
<g><path style="opacity:1" fill="#b28a3c" d="M 129.5,17.5 C 129.5,17.8333 129.5,18.1667 129.5,18.5C 129.762,19.9778 129.429,21.3112 128.5,22.5C 127.893,22.3764 127.56,22.0431 127.5,21.5C 127.157,19.5168 127.824,18.1834 129.5,17.5 Z"/></g>
<g><path style="opacity:1" fill="#bd9864" d="M 134.5,17.5 C 134.833,17.5 135.167,17.5 135.5,17.5C 136.11,18.391 136.443,19.391 136.5,20.5C 134.952,20.1788 134.285,19.1788 134.5,17.5 Z"/></g>
<g><path style="opacity:1" fill="#4a3729" d="M 135.5,16.5 C 136.167,16.5 136.833,16.5 137.5,16.5C 137.5,16.8333 137.5,17.1667 137.5,17.5C 137.5,17.8333 137.5,18.1667 137.5,18.5C 137.5,19.1667 137.5,19.8333 137.5,20.5C 137.167,20.5 136.833,20.5 136.5,20.5C 136.443,19.391 136.11,18.391 135.5,17.5C 135.5,17.1667 135.5,16.8333 135.5,16.5 Z"/></g>
<g><path style="opacity:1" fill="#2d444f" d="M 137.5,18.5 C 139.027,18.427 140.027,19.0937 140.5,20.5C 139.5,20.5 138.5,20.5 137.5,20.5C 137.5,19.8333 137.5,19.1667 137.5,18.5 Z"/></g>
<g><path style="opacity:1" fill="#4c4026" d="M 141.5,12.5 C 141.833,12.5 142.167,12.5 142.5,12.5C 143.038,14.1172 143.371,15.7839 143.5,17.5C 143.5,18.1667 143.5,18.8333 143.5,19.5C 143.5,20.1667 143.167,20.5 142.5,20.5C 142.5,19.5 142.5,18.5 142.5,17.5C 142.672,16.5084 142.338,15.8417 141.5,15.5C 141.5,14.8333 141.5,14.1667 141.5,13.5C 141.5,13.1667 141.5,12.8333 141.5,12.5 Z"/></g>
<g><path style="opacity:0.976" fill="#70532f" d="M 145.5,19.5 C 145.842,18.6618 146.508,18.3284 147.5,18.5C 148.833,18.5 150.167,18.5 151.5,18.5C 153.735,18.2053 155.735,18.5386 157.5,19.5C 154.315,19.8281 150.982,19.8281 147.5,19.5C 146.833,19.5 146.167,19.5 145.5,19.5 Z"/></g>
<g><path style="opacity:1" fill="#38393b" d="M 15.5,17.5 C 16.391,18.1098 17.391,18.4431 18.5,18.5C 18.5,19.1667 18.8333,19.5 19.5,19.5C 19.5,20.5 19.5,21.5 19.5,22.5C 18.8333,22.8333 18.1667,23.1667 17.5,23.5C 16.8333,22.8333 16.1667,22.1667 15.5,21.5C 15.5,20.1667 15.5,18.8333 15.5,17.5 Z"/></g>
<g><path style="opacity:1" fill="#2a2e34" d="M 43.5,18.5 C 44.391,19.1098 45.391,19.4431 46.5,19.5C 46.8333,19.5 47.1667,19.5 47.5,19.5C 47.8333,20.1667 48.1667,20.8333 48.5,21.5C 48.5,21.8333 48.5,22.1667 48.5,22.5C 47.8826,22.3893 47.3826,22.056 47,21.5C 46.7216,22.4158 46.2216,23.0825 45.5,23.5C 45.631,22.7611 45.4643,22.0944 45,21.5C 44.3292,22.2524 43.4959,22.5858 42.5,22.5C 42.5,21.5 42.5,20.5 42.5,19.5C 43.1667,19.5 43.5,19.1667 43.5,18.5 Z"/></g>
<g><path style="opacity:1" fill="#1e1f1e" d="M 67.5,18.5 C 67.8333,18.5 68.1667,18.5 68.5,18.5C 68.1788,20.0481 67.1788,20.7148 65.5,20.5C 64.8333,20.5 64.1667,20.5 63.5,20.5C 63.1667,20.5 62.8333,20.5 62.5,20.5C 62.5,20.1667 62.5,19.8333 62.5,19.5C 63.1667,19.5 63.8333,19.5 64.5,19.5C 65.791,19.7373 66.791,19.404 67.5,18.5 Z"/></g>
<g><path style="opacity:1" fill="#4a474a" d="M 77.5,17.5 C 77.8333,17.5 78.1667,17.5 78.5,17.5C 79.8333,17.5 80.5,18.1667 80.5,19.5C 80.0618,19.4346 79.7284,19.6012 79.5,20C 80.5266,20.5133 81.5266,21.0133 82.5,21.5C 82.1667,22.1667 81.8333,22.8333 81.5,23.5C 80.5,22.8333 79.5,22.1667 78.5,21.5C 78.6716,20.5084 78.3382,19.8417 77.5,19.5C 77.5,18.8333 77.5,18.1667 77.5,17.5 Z"/></g>
<g><path style="opacity:1" fill="#2a2020" d="M 85.5,18.5 C 86.3382,18.8417 86.6716,19.5084 86.5,20.5C 85.209,20.2627 84.209,20.596 83.5,21.5C 83.1667,21.5 82.8333,21.5 82.5,21.5C 81.5266,21.0133 80.5266,20.5133 79.5,20C 79.7284,19.6012 80.0618,19.4346 80.5,19.5C 81.1667,19.5 81.8333,19.5 82.5,19.5C 83.791,19.7373 84.791,19.404 85.5,18.5 Z"/></g>
<g><path style="opacity:1" fill="#22211c" d="M 92.5,18.5 C 92.8417,19.3382 93.5084,19.6716 94.5,19.5C 94.5,20.1667 94.1667,20.5 93.5,20.5C 92.1667,20.5 90.8333,20.5 89.5,20.5C 89.5,20.1667 89.5,19.8333 89.5,19.5C 90.3652,19.4361 91.3652,19.1027 92.5,18.5 Z"/></g>
<g><path style="opacity:1" fill="#272612" d="M 117.5,19.5 C 118.833,19.5 120.167,19.5 121.5,19.5C 121.158,20.3382 120.492,20.6716 119.5,20.5C 118.508,20.3284 117.842,20.6618 117.5,21.5C 117.167,21.5 116.833,21.5 116.5,21.5C 116.167,21.5 115.833,21.5 115.5,21.5C 114.5,20.1667 113.5,20.1667 112.5,21.5C 112.5,23.1667 112.5,24.8333 112.5,26.5C 112.167,26.5 111.833,26.5 111.5,26.5C 111.5,25.5 111.5,24.5 111.5,23.5C 111.5,22.1667 111.5,20.8333 111.5,19.5C 112.5,19.5 113.5,19.5 114.5,19.5C 115.5,18.1667 116.5,18.1667 117.5,19.5 Z"/></g>
<g><path style="opacity:1" fill="#212323" d="M 124.5,17.5 C 124.833,17.5 125.167,17.5 125.5,17.5C 125.5,20.5 125.5,23.5 125.5,26.5C 125.167,26.5 124.833,26.5 124.5,26.5C 124.5,24.8333 124.5,23.1667 124.5,21.5C 123.209,21.2627 122.209,21.596 121.5,22.5C 120.167,22.5 119.5,21.8333 119.5,20.5C 120.492,20.6716 121.158,20.3382 121.5,19.5C 123.179,19.7148 124.179,19.0481 124.5,17.5 Z"/></g>
<g><path style="opacity:1" fill="#bd914c" d="M 134.5,17.5 C 134.285,19.1788 134.952,20.1788 136.5,20.5C 136.833,20.5 137.167,20.5 137.5,20.5C 137.5,21.1667 137.5,21.8333 137.5,22.5C 137.672,23.4916 137.338,24.1583 136.5,24.5C 135.609,23.8902 134.609,23.5569 133.5,23.5C 132.833,21.8333 132.167,20.1667 131.5,18.5C 131.833,18.5 132.167,18.5 132.5,18.5C 133.167,18.1667 133.833,17.8333 134.5,17.5 Z"/></g>
<g><path style="opacity:1" fill="#b49c6b" d="M 22.5,15.5 C 22.8333,15.5 23.1667,15.5 23.5,15.5C 23.5,16.8333 23.5,18.1667 23.5,19.5C 21.6941,16.6618 20.6941,16.9952 20.5,20.5C 20.8333,21.8333 21.1667,23.1667 21.5,24.5C 20.5,24.1667 19.8333,23.5 19.5,22.5C 19.5,21.5 19.5,20.5 19.5,19.5C 19.5,18.5 19.5,17.5 19.5,16.5C 20.791,16.7373 21.791,16.404 22.5,15.5 Z"/></g>
<g><path style="opacity:1" fill="#c29e54" d="M 23.5,19.5 C 23.5,19.8333 23.5,20.1667 23.5,20.5C 23.5,20.8333 23.5,21.1667 23.5,21.5C 22.391,21.4431 21.391,21.1098 20.5,20.5C 20.6941,16.9952 21.6941,16.6618 23.5,19.5 Z"/></g>
<g><path style="opacity:1" fill="#252624" d="M 27.5,18.5 C 28.1667,18.8333 28.8333,19.1667 29.5,19.5C 29.5,20.1667 29.5,20.8333 29.5,21.5C 28.8333,21.8333 28.1667,22.1667 27.5,22.5C 27.5,22.1667 27.5,21.8333 27.5,21.5C 27.5,20.5 27.5,19.5 27.5,18.5 Z"/></g>
<g><path style="opacity:1" fill="#bc8d54" d="M 32.5,15.5 C 32.8333,15.5 33.1667,15.5 33.5,15.5C 33.5,16.1667 33.5,16.8333 33.5,17.5C 33.5,18.8333 33.5,20.1667 33.5,21.5C 32.8333,21.8333 32.1667,22.1667 31.5,22.5C 31.5,21.8333 31.5,21.1667 31.5,20.5C 32.038,18.8828 32.3713,17.2161 32.5,15.5 Z"/></g>
<g><path style="opacity:1" fill="#946842" d="M 33.5,17.5 C 34.2679,18.2625 34.7679,19.2625 35,20.5C 35.2321,19.2625 35.7321,18.2625 36.5,17.5C 36.5,19.1667 36.5,20.8333 36.5,22.5C 35.391,22.4431 34.391,22.1098 33.5,21.5C 33.5,20.1667 33.5,18.8333 33.5,17.5 Z"/></g>
<g><path style="opacity:1" fill="#343021" d="M 39.5,16.5 C 40.404,17.209 40.7373,18.209 40.5,19.5C 40.5,20.8333 39.8333,21.5 38.5,21.5C 38.6287,19.7839 38.962,18.1172 39.5,16.5 Z"/></g>
<g><path style="opacity:1" fill="#282121" d="M 47.5,19.5 C 47.8333,19.5 48.1667,19.5 48.5,19.5C 49.5,19.5 50.5,19.5 51.5,19.5C 52.1667,19.5 52.8333,19.5 53.5,19.5C 53.5,19.8333 53.5,20.1667 53.5,20.5C 52.8333,20.8333 52.1667,21.1667 51.5,21.5C 50.5,21.5 49.5,21.5 48.5,21.5C 48.1667,20.8333 47.8333,20.1667 47.5,19.5 Z"/></g>
<g><path style="opacity:1" fill="#6a665b" d="M 53.5,20.5 C 54.5,20.5 55.5,20.5 56.5,20.5C 56.6716,21.4916 56.3382,22.1583 55.5,22.5C 55.44,21.9569 55.1067,21.6236 54.5,21.5C 53.6143,22.325 53.281,23.325 53.5,24.5C 52.8333,23.8333 52.1667,23.1667 51.5,22.5C 51.5,22.1667 51.5,21.8333 51.5,21.5C 52.1667,21.1667 52.8333,20.8333 53.5,20.5 Z"/></g>
<g><path style="opacity:1" fill="#372d22" d="M 53.5,20.5 C 53.5,20.1667 53.5,19.8333 53.5,19.5C 54.1667,19.5 54.8333,19.5 55.5,19.5C 55.8333,19.5 56.1667,19.5 56.5,19.5C 57.609,19.5569 58.609,19.8902 59.5,20.5C 59.5,20.8333 59.5,21.1667 59.5,21.5C 58.8333,21.5 58.1667,21.5 57.5,21.5C 57.5,20.8333 57.1667,20.5 56.5,20.5C 55.5,20.5 54.5,20.5 53.5,20.5 Z"/></g>
<g><path style="opacity:1" fill="#2e3036" d="M 68.5,18.5 C 69.1667,18.5 69.5,18.8333 69.5,19.5C 69.4431,20.609 69.1098,21.609 68.5,22.5C 68.1667,22.5 67.8333,22.5 67.5,22.5C 66.8333,21.8333 66.1667,21.1667 65.5,20.5C 67.1788,20.7148 68.1788,20.0481 68.5,18.5 Z"/></g>
<g><path style="opacity:1" fill="#322522" d="M 69.5,19.5 C 69.8333,19.5 70.1667,19.5 70.5,19.5C 71.5,19.5 72.5,19.5 73.5,19.5C 73.5,20.1667 73.5,20.8333 73.5,21.5C 72.0804,22.8105 70.7471,23.4772 69.5,23.5C 69.1667,23.5 68.8333,23.5 68.5,23.5C 68.5,23.1667 68.5,22.8333 68.5,22.5C 69.1098,21.609 69.4431,20.609 69.5,19.5 Z"/></g>
<g><path style="opacity:1" fill="#2d2935" d="M 73.5,19.5 C 74.1667,19.5 74.8333,19.5 75.5,19.5C 76.5511,20.2223 77.2178,21.2223 77.5,22.5C 76.8333,22.8333 76.1667,23.1667 75.5,23.5C 75.1667,22.5 74.5,21.8333 73.5,21.5C 73.5,20.8333 73.5,20.1667 73.5,19.5 Z"/></g>
<g><path style="opacity:1" fill="#35272f" d="M 75.5,19.5 C 76.1667,19.5 76.8333,19.5 77.5,19.5C 78.3382,19.8417 78.6716,20.5084 78.5,21.5C 78.5,21.8333 78.5,22.1667 78.5,22.5C 78.1667,22.5 77.8333,22.5 77.5,22.5C 77.2178,21.2223 76.5511,20.2223 75.5,19.5 Z"/></g>
<g><path style="opacity:1" fill="#5c544f" d="M 89.5,20.5 C 90.8333,20.5 92.1667,20.5 93.5,20.5C 93.5,21.1667 93.5,21.8333 93.5,22.5C 91.1205,21.4331 90.1205,22.4331 90.5,25.5C 90.1667,25.5 89.8333,25.5 89.5,25.5C 88.8333,25.5 88.5,25.1667 88.5,24.5C 88.4326,23.0413 88.7659,21.7079 89.5,20.5 Z"/></g>
<g><path style="opacity:1" fill="#251918" d="M 101.5,17.5 C 101.5,18.8333 102.167,19.5 103.5,19.5C 102.5,20.1667 101.5,20.8333 100.5,21.5C 100.5,21.8333 100.5,22.1667 100.5,22.5C 99.8333,22.5 99.1667,22.5 98.5,22.5C 98.5,22.1667 98.5,21.8333 98.5,21.5C 97.8333,20.8333 97.1667,20.1667 96.5,19.5C 97.5,19.5 98.5,19.5 99.5,19.5C 100.167,18.8333 100.833,18.1667 101.5,17.5 Z"/></g>
<g><path style="opacity:1" fill="#303036" d="M 103.5,19.5 C 104.167,19.8333 104.833,20.1667 105.5,20.5C 106.167,20.5 106.5,20.8333 106.5,21.5C 106.672,22.4916 106.338,23.1583 105.5,23.5C 104.222,23.2178 103.222,22.5511 102.5,21.5C 101.833,21.5 101.167,21.5 100.5,21.5C 101.5,20.8333 102.5,20.1667 103.5,19.5 Z"/></g>
<g><path style="opacity:1" fill="#3d3235" d="M 105.5,17.5 C 105.833,17.5 106.167,17.5 106.5,17.5C 106.5,18.1667 106.833,18.5 107.5,18.5C 107.842,19.3382 108.508,19.6716 109.5,19.5C 109.5,20.1667 109.5,20.8333 109.5,21.5C 109.167,21.5 108.833,21.5 108.5,21.5C 107.833,21.5 107.167,21.5 106.5,21.5C 106.5,20.8333 106.167,20.5 105.5,20.5C 105.5,19.5 105.5,18.5 105.5,17.5 Z"/></g>
<g><path style="opacity:1" fill="#4e4e2e" d="M 112.5,21.5 C 113.5,20.1667 114.5,20.1667 115.5,21.5C 114.778,21.9175 114.278,22.5842 114,23.5C 113.722,22.5842 113.222,21.9175 112.5,21.5 Z"/></g>
<g><path style="opacity:1" fill="#332f2a" d="M 142.5,17.5 C 142.5,18.5 142.5,19.5 142.5,20.5C 142.5,21.1667 142.5,21.8333 142.5,22.5C 141.833,22.5 141.5,22.8333 141.5,23.5C 140.833,23.5 140.5,23.8333 140.5,24.5C 139.5,23.8333 138.5,23.1667 137.5,22.5C 137.5,21.8333 137.5,21.1667 137.5,20.5C 138.5,20.5 139.5,20.5 140.5,20.5C 141.332,20.246 141.999,19.246 142.5,17.5 Z"/></g>
<g><path style="opacity:0.98" fill="#a18666" d="M 143.5,19.5 C 144.167,19.5 144.833,19.5 145.5,19.5C 146.167,19.5 146.833,19.5 147.5,19.5C 146.5,20.5 145.5,21.5 144.5,22.5C 144.062,21.4937 143.396,21.4937 142.5,22.5C 142.5,21.8333 142.5,21.1667 142.5,20.5C 143.167,20.5 143.5,20.1667 143.5,19.5 Z"/></g>
<g><path style="opacity:1" fill="#b38c4f" d="M 20.5,20.5 C 21.391,21.1098 22.391,21.4431 23.5,21.5C 23.5,22.8333 23.5,24.1667 23.5,25.5C 22.8333,25.5 22.1667,25.5 21.5,25.5C 21.5,25.1667 21.5,24.8333 21.5,24.5C 21.1667,23.1667 20.8333,21.8333 20.5,20.5 Z"/></g>
<g><path style="opacity:1" fill="#a47442" d="M 33.5,21.5 C 34.391,22.1098 35.391,22.4431 36.5,22.5C 35.1667,23.1667 33.8333,23.8333 32.5,24.5C 32.1667,24.5 31.8333,24.5 31.5,24.5C 31.5,23.8333 31.5,23.1667 31.5,22.5C 32.1667,22.1667 32.8333,21.8333 33.5,21.5 Z"/></g>
<g><path style="opacity:1" fill="#282727" d="M 40.5,19.5 C 40.8333,19.5 41.1667,19.5 41.5,19.5C 41.8333,19.5 42.1667,19.5 42.5,19.5C 42.5,20.5 42.5,21.5 42.5,22.5C 40.901,22.2322 39.5676,22.5655 38.5,23.5C 38.1667,23.5 37.8333,23.5 37.5,23.5C 37.5,23.1667 37.5,22.8333 37.5,22.5C 37.5,21.8333 37.8333,21.5 38.5,21.5C 39.8333,21.5 40.5,20.8333 40.5,19.5 Z"/></g>
<g><path style="opacity:1" fill="#908b5d" d="M 59.5,21.5 C 61.0481,21.8212 61.7148,22.8212 61.5,24.5C 61.5,24.8333 61.5,25.1667 61.5,25.5C 60.8333,25.5 60.1667,25.5 59.5,25.5C 59.5,24.1667 59.5,22.8333 59.5,21.5 Z"/></g>
<g><path style="opacity:1" fill="#514637" d="M 59.5,21.5 C 59.5,21.1667 59.5,20.8333 59.5,20.5C 60.5,20.5 61.5,20.5 62.5,20.5C 62.8333,20.5 63.1667,20.5 63.5,20.5C 63.5,21.1667 63.5,21.8333 63.5,22.5C 63.5,23.1667 63.5,23.8333 63.5,24.5C 62.8333,24.5 62.1667,24.5 61.5,24.5C 61.7148,22.8212 61.0481,21.8212 59.5,21.5 Z"/></g>
<g><path style="opacity:1" fill="#1b1e2d" d="M 63.5,20.5 C 64.1667,20.5 64.8333,20.5 65.5,20.5C 66.1667,21.1667 66.8333,21.8333 67.5,22.5C 67.1667,22.5 66.8333,22.5 66.5,22.5C 65.5,23.8333 64.5,23.8333 63.5,22.5C 63.5,21.8333 63.5,21.1667 63.5,20.5 Z"/></g>
<g><path style="opacity:1" fill="#6a6053" d="M 86.5,20.5 C 86.5,20.8333 86.5,21.1667 86.5,21.5C 86.5,23.1667 86.5,24.8333 86.5,26.5C 85.0221,25.5525 84.0221,24.2191 83.5,22.5C 83.5,22.1667 83.5,21.8333 83.5,21.5C 84.209,20.596 85.209,20.2627 86.5,20.5 Z"/></g>
<g><path style="opacity:1" fill="#342a31" d="M 94.5,19.5 C 95.1667,19.5 95.8333,19.5 96.5,19.5C 97.1667,20.1667 97.8333,20.8333 98.5,21.5C 97.8333,21.5 97.1667,21.5 96.5,21.5C 95.8333,21.5 95.5,21.8333 95.5,22.5C 94.8333,22.5 94.1667,22.5 93.5,22.5C 93.5,21.8333 93.5,21.1667 93.5,20.5C 94.1667,20.5 94.5,20.1667 94.5,19.5 Z"/></g>
<g><path style="opacity:1" fill="#20292f" d="M 109.5,19.5 C 110.167,19.5 110.833,19.5 111.5,19.5C 111.5,20.8333 111.5,22.1667 111.5,23.5C 110.167,23.5 109.5,22.8333 109.5,21.5C 109.5,20.8333 109.5,20.1667 109.5,19.5 Z"/></g>
<g><path style="opacity:1" fill="#25242d" d="M 119.5,20.5 C 119.5,21.8333 120.167,22.5 121.5,22.5C 121.5,22.8333 121.5,23.1667 121.5,23.5C 120.833,23.5 120.167,23.5 119.5,23.5C 118.833,23.5 118.167,23.5 117.5,23.5C 117.5,22.8333 117.5,22.1667 117.5,21.5C 117.842,20.6618 118.508,20.3284 119.5,20.5 Z"/></g>
<g><path style="opacity:0.961" fill="#766147" d="M 15.5,21.5 C 16.1667,22.1667 16.8333,22.8333 17.5,23.5C 17.8333,24.5 18.5,25.1667 19.5,25.5C 19.5,26.1667 19.8333,26.5 20.5,26.5C 19.9094,27.1515 19.2427,27.8182 18.5,28.5C 18.6236,29.1067 18.9569,29.44 19.5,29.5C 19.2172,30.2891 18.7172,30.9558 18,31.5C 17.8478,27.8476 16.0144,25.5142 12.5,24.5C 12.6236,23.8933 12.9569,23.56 13.5,23.5C 14.8333,23.5 15.5,22.8333 15.5,21.5 Z"/></g>
<g><path style="opacity:1" fill="#a08944" d="M 25.5,17.5 C 26.4345,18.5676 26.7678,19.901 26.5,21.5C 26.5674,22.9587 26.2341,24.2921 25.5,25.5C 24.8333,25.5 24.1667,25.5 23.5,25.5C 23.5,24.1667 23.5,22.8333 23.5,21.5C 23.5,21.1667 23.5,20.8333 23.5,20.5C 24.4013,19.7095 25.0679,18.7095 25.5,17.5 Z"/></g>
<g><path style="opacity:1" fill="#18181d" d="M 29.5,21.5 C 29.5,22.5 29.5,23.5 29.5,24.5C 28.8333,24.5 28.1667,24.5 27.5,24.5C 27.5,23.8333 27.5,23.1667 27.5,22.5C 28.1667,22.1667 28.8333,21.8333 29.5,21.5 Z"/></g>
<g><path style="opacity:1" fill="#151820" d="M 45.5,23.5 C 45.5,23.8333 45.5,24.1667 45.5,24.5C 44.6618,24.8417 44.3284,25.5084 44.5,26.5C 43.8333,26.5 43.1667,26.5 42.5,26.5C 42.5,25.5 42.5,24.5 42.5,23.5C 41.0413,23.4326 39.7079,23.7659 38.5,24.5C 38.5,24.1667 38.5,23.8333 38.5,23.5C 39.5676,22.5655 40.901,22.2322 42.5,22.5C 43.4959,22.5858 44.3292,22.2524 45,21.5C 45.4643,22.0944 45.631,22.7611 45.5,23.5 Z"/></g>
<g><path style="opacity:1" fill="#958b71" d="M 48.5,22.5 C 48.3284,23.4916 48.6618,24.1583 49.5,24.5C 49.5,25.1667 49.5,25.8333 49.5,26.5C 48.5084,26.6716 47.8417,26.3382 47.5,25.5C 47.1583,24.6618 46.4916,24.3284 45.5,24.5C 45.5,24.1667 45.5,23.8333 45.5,23.5C 46.2216,23.0825 46.7216,22.4158 47,21.5C 47.3826,22.056 47.8826,22.3893 48.5,22.5 Z"/></g>
<g><path style="opacity:1" fill="#151f18" d="M 48.5,21.5 C 49.5,21.5 50.5,21.5 51.5,21.5C 51.5,21.8333 51.5,22.1667 51.5,22.5C 51.5,23.1667 51.5,23.8333 51.5,24.5C 50.6043,23.4937 49.9377,23.4937 49.5,24.5C 48.6618,24.1583 48.3284,23.4916 48.5,22.5C 48.5,22.1667 48.5,21.8333 48.5,21.5 Z"/></g>
<g><path style="opacity:1" fill="#131811" d="M 55.5,22.5 C 55.5,22.8333 55.5,23.1667 55.5,23.5C 54.8333,24.1667 54.1667,24.8333 53.5,25.5C 53.5,25.1667 53.5,24.8333 53.5,24.5C 53.281,23.325 53.6143,22.325 54.5,21.5C 55.1067,21.6236 55.44,21.9569 55.5,22.5 Z"/></g>
<g><path style="opacity:1" fill="#202619" d="M 56.5,20.5 C 57.1667,20.5 57.5,20.8333 57.5,21.5C 57.5,22.5 57.5,23.5 57.5,24.5C 57.1667,24.5 56.8333,24.5 56.5,24.5C 56.5,23.8333 56.1667,23.5 55.5,23.5C 55.5,23.1667 55.5,22.8333 55.5,22.5C 56.3382,22.1583 56.6716,21.4916 56.5,20.5 Z"/></g>
<g><path style="opacity:1" fill="#1d1b1b" d="M 82.5,21.5 C 82.8333,21.5 83.1667,21.5 83.5,21.5C 83.5,21.8333 83.5,22.1667 83.5,22.5C 83.8432,24.4832 83.1765,25.8166 81.5,26.5C 81.5,26.1667 81.5,25.8333 81.5,25.5C 81.5,24.8333 81.5,24.1667 81.5,23.5C 81.8333,22.8333 82.1667,22.1667 82.5,21.5 Z"/></g>
<g><path style="opacity:1" fill="#262417" d="M 87.5,19.5 C 87.8333,19.5 88.1667,19.5 88.5,19.5C 88.8333,19.5 89.1667,19.5 89.5,19.5C 89.5,19.8333 89.5,20.1667 89.5,20.5C 88.7659,21.7079 88.4326,23.0413 88.5,24.5C 87.8333,23.5 87.1667,22.5 86.5,21.5C 86.5,21.1667 86.5,20.8333 86.5,20.5C 87.1667,20.5 87.5,20.1667 87.5,19.5 Z"/></g>
<g><path style="opacity:1" fill="#20130d" d="M 93.5,22.5 C 94.1667,22.5 94.8333,22.5 95.5,22.5C 95.5,22.8333 95.5,23.1667 95.5,23.5C 94.8333,23.8333 94.1667,24.1667 93.5,24.5C 93.44,23.9569 93.1067,23.6236 92.5,23.5C 91.8182,24.2427 91.1515,24.9094 90.5,25.5C 90.1205,22.4331 91.1205,21.4331 93.5,22.5 Z"/></g>
<g><path style="opacity:1" fill="#a09581" d="M 100.5,21.5 C 101.167,21.5 101.833,21.5 102.5,21.5C 102.5,22.5 102.5,23.5 102.5,24.5C 101.833,24.1667 101.167,23.8333 100.5,23.5C 100.5,23.1667 100.5,22.8333 100.5,22.5C 100.5,22.1667 100.5,21.8333 100.5,21.5 Z"/></g>
<g><path style="opacity:1" fill="#94826a" d="M 106.5,21.5 C 107.167,21.5 107.833,21.5 108.5,21.5C 108.629,23.2161 108.962,24.8828 109.5,26.5C 108.25,26.4226 107.417,25.756 107,24.5C 106.601,24.7284 106.435,25.0618 106.5,25.5C 105.662,25.1583 105.328,24.4916 105.5,23.5C 106.338,23.1583 106.672,22.4916 106.5,21.5 Z"/></g>
<g><path style="opacity:1" fill="#1e1833" d="M 124.5,26.5 C 123.5,26.5 122.5,26.5 121.5,26.5C 121.5,25.5 121.5,24.5 121.5,23.5C 121.5,23.1667 121.5,22.8333 121.5,22.5C 122.209,21.596 123.209,21.2627 124.5,21.5C 124.5,23.1667 124.5,24.8333 124.5,26.5 Z"/></g>
<g><path style="opacity:1" fill="#443014" d="M 130.5,18.5 C 130.833,18.5 131.167,18.5 131.5,18.5C 132.167,20.1667 132.833,21.8333 133.5,23.5C 132.883,23.3893 132.383,23.056 132,22.5C 131.51,23.7932 131.343,25.1266 131.5,26.5C 132.833,26.5 134.167,26.5 135.5,26.5C 135.5,26.8333 135.5,27.1667 135.5,27.5C 133.5,27.5 131.5,27.5 129.5,27.5C 129.5,26.8333 129.5,26.1667 129.5,25.5C 130.468,23.3926 130.802,21.0593 130.5,18.5 Z"/></g>
<g><path style="opacity:0.945" fill="#9c8061" d="M 144.5,22.5 C 144.5,23.5 144.5,24.5 144.5,25.5C 143.833,24.8333 143.167,24.1667 142.5,23.5C 142.167,23.5 141.833,23.5 141.5,23.5C 141.5,22.8333 141.833,22.5 142.5,22.5C 143.396,21.4937 144.062,21.4937 144.5,22.5 Z"/></g>
<g><path style="opacity:1" fill="#181813" d="M 19.5,22.5 C 19.8333,23.5 20.5,24.1667 21.5,24.5C 21.5,24.8333 21.5,25.1667 21.5,25.5C 20.8333,25.5 20.1667,25.5 19.5,25.5C 18.5,25.1667 17.8333,24.5 17.5,23.5C 18.1667,23.1667 18.8333,22.8333 19.5,22.5 Z"/></g>
<g><path style="opacity:1" fill="#221c0c" d="M 29.5,21.5 C 30.1667,21.8333 30.8333,22.1667 31.5,22.5C 31.5,23.1667 31.5,23.8333 31.5,24.5C 31.0623,25.5063 30.3957,25.5063 29.5,24.5C 29.5,23.5 29.5,22.5 29.5,21.5 Z"/></g>
<g><path style="opacity:1" fill="#987b42" d="M 36.5,22.5 C 36.8333,22.5 37.1667,22.5 37.5,22.5C 37.5,22.8333 37.5,23.1667 37.5,23.5C 37.1667,24.1667 36.8333,24.8333 36.5,25.5C 35.5,25.5 34.5,25.5 33.5,25.5C 32.8333,25.5 32.5,25.1667 32.5,24.5C 33.8333,23.8333 35.1667,23.1667 36.5,22.5 Z"/></g>
<g><path style="opacity:1" fill="#180a1c" d="M 63.5,22.5 C 64.5,23.8333 65.5,23.8333 66.5,22.5C 66.5,23.5 66.5,24.5 66.5,25.5C 65.209,25.7373 64.209,25.404 63.5,24.5C 63.5,23.8333 63.5,23.1667 63.5,22.5 Z"/></g>
<g><path style="opacity:1" fill="#71634c" d="M 73.5,21.5 C 74.5,21.8333 75.1667,22.5 75.5,23.5C 74.8333,23.5 74.5,23.8333 74.5,24.5C 73.8333,24.5 73.5,24.8333 73.5,25.5C 72.1529,24.8288 70.9862,24.8288 70,25.5C 69.5357,24.9056 69.369,24.2389 69.5,23.5C 70.7471,23.4772 72.0804,22.8105 73.5,21.5 Z"/></g>
<g><path style="opacity:1" fill="#baa595" d="M 78.5,21.5 C 79.5,22.1667 80.5,22.8333 81.5,23.5C 81.5,24.1667 81.5,24.8333 81.5,25.5C 80.1667,24.8333 79.1667,23.8333 78.5,22.5C 78.5,22.1667 78.5,21.8333 78.5,21.5 Z"/></g>
<g><path style="opacity:1" fill="#847564" d="M 96.5,21.5 C 97.1667,21.5 97.8333,21.5 98.5,21.5C 98.5,21.8333 98.5,22.1667 98.5,22.5C 98.8039,23.1499 99.1373,23.8165 99.5,24.5C 99.1543,25.6956 98.6543,25.6956 98,24.5C 97.5357,25.0944 97.369,25.7611 97.5,26.5C 96.5489,25.0813 96.2155,23.4147 96.5,21.5 Z"/></g>
<g><path style="opacity:1" fill="#989470" d="M 112.5,21.5 C 113.222,21.9175 113.722,22.5842 114,23.5C 114.278,22.5842 114.778,21.9175 115.5,21.5C 115.833,21.5 116.167,21.5 116.5,21.5C 116.443,22.609 116.11,23.609 115.5,24.5C 115.5,25.1667 115.167,25.5 114.5,25.5C 114.565,25.0618 114.399,24.7284 114,24.5C 113.722,25.4158 113.222,26.0825 112.5,26.5C 112.5,24.8333 112.5,23.1667 112.5,21.5 Z"/></g>
<g><path style="opacity:1" fill="#261c18" d="M 116.5,21.5 C 116.833,21.5 117.167,21.5 117.5,21.5C 117.5,22.1667 117.5,22.8333 117.5,23.5C 117.285,25.1788 117.952,26.1788 119.5,26.5C 120.167,26.5 120.833,26.5 121.5,26.5C 122.5,26.5 123.5,26.5 124.5,26.5C 124.5,26.8333 124.5,27.1667 124.5,27.5C 121.833,27.5 119.167,27.5 116.5,27.5C 116.737,26.209 116.404,25.209 115.5,24.5C 116.11,23.609 116.443,22.609 116.5,21.5 Z"/></g>
<g><path style="opacity:1" fill="#271c10" d="M 26.5,21.5 C 26.8333,21.5 27.1667,21.5 27.5,21.5C 27.5,21.8333 27.5,22.1667 27.5,22.5C 27.5,23.1667 27.5,23.8333 27.5,24.5C 27.5,25.1667 27.1667,25.5 26.5,25.5C 26.1667,25.5 25.8333,25.5 25.5,25.5C 26.2341,24.2921 26.5674,22.9587 26.5,21.5 Z"/></g>
<g><path style="opacity:1" fill="#110d27" d="M 42.5,26.5 C 40.6203,26.7709 39.287,26.1042 38.5,24.5C 39.7079,23.7659 41.0413,23.4326 42.5,23.5C 42.5,24.5 42.5,25.5 42.5,26.5 Z"/></g>
<g><path style="opacity:1" fill="#9e9771" d="M 51.5,22.5 C 52.1667,23.1667 52.8333,23.8333 53.5,24.5C 53.5,24.8333 53.5,25.1667 53.5,25.5C 53.5,25.8333 53.5,26.1667 53.5,26.5C 52.5,26.1667 51.8333,25.5 51.5,24.5C 51.5,23.8333 51.5,23.1667 51.5,22.5 Z"/></g>
<g><path style="opacity:1" fill="#1a1015" d="M 57.5,21.5 C 58.1667,21.5 58.8333,21.5 59.5,21.5C 59.5,22.8333 59.5,24.1667 59.5,25.5C 59.5,25.8333 59.5,26.1667 59.5,26.5C 58.1667,26.5 57.5,25.8333 57.5,24.5C 57.5,23.5 57.5,22.5 57.5,21.5 Z"/></g>
<g><path style="opacity:1" fill="#756763" d="M 66.5,22.5 C 66.8333,22.5 67.1667,22.5 67.5,22.5C 67.8333,22.5 68.1667,22.5 68.5,22.5C 68.5,22.8333 68.5,23.1667 68.5,23.5C 68.6716,24.4916 68.3382,25.1583 67.5,25.5C 67.1667,25.5 66.8333,25.5 66.5,25.5C 66.5,24.5 66.5,23.5 66.5,22.5 Z"/></g>
<g><path style="opacity:1" fill="#1e141f" d="M 77.5,22.5 C 77.5,23.1667 77.5,23.8333 77.5,24.5C 76.3478,25.625 75.3478,25.625 74.5,24.5C 74.5,23.8333 74.8333,23.5 75.5,23.5C 76.1667,23.1667 76.8333,22.8333 77.5,22.5 Z"/></g>
<g><path style="opacity:1" fill="#322718" d="M 77.5,22.5 C 77.8333,22.5 78.1667,22.5 78.5,22.5C 79.1667,23.8333 80.1667,24.8333 81.5,25.5C 81.5,25.8333 81.5,26.1667 81.5,26.5C 80.5,26.5 79.5,26.5 78.5,26.5C 78.1667,25.8333 77.8333,25.1667 77.5,24.5C 77.5,23.8333 77.5,23.1667 77.5,22.5 Z"/></g>
<g><path style="opacity:1" fill="#170d0b" d="M 86.5,21.5 C 87.1667,22.5 87.8333,23.5 88.5,24.5C 88.5,25.1667 88.8333,25.5 89.5,25.5C 89.8333,26.1667 90.1667,26.8333 90.5,27.5C 89.8333,27.5 89.1667,27.5 88.5,27.5C 88.1583,26.6618 87.4916,26.3284 86.5,26.5C 86.5,24.8333 86.5,23.1667 86.5,21.5 Z"/></g>
<g><path style="opacity:1" fill="#180e0b" d="M 95.5,23.5 C 95.5674,24.9587 95.2341,26.2921 94.5,27.5C 93.8333,27.5 93.1667,27.5 92.5,27.5C 93.1098,26.609 93.4431,25.609 93.5,24.5C 94.1667,24.1667 94.8333,23.8333 95.5,23.5 Z"/></g>
<g><path style="opacity:1" fill="#231305" d="M 96.5,21.5 C 96.2155,23.4147 96.5489,25.0813 97.5,26.5C 97.5,26.8333 97.5,27.1667 97.5,27.5C 96.5,27.5 95.5,27.5 94.5,27.5C 95.2341,26.2921 95.5674,24.9587 95.5,23.5C 95.5,23.1667 95.5,22.8333 95.5,22.5C 95.5,21.8333 95.8333,21.5 96.5,21.5 Z"/></g>
<g><path style="opacity:1" fill="#321e11" d="M 98.5,22.5 C 99.1667,22.5 99.8333,22.5 100.5,22.5C 100.5,22.8333 100.5,23.1667 100.5,23.5C 100.263,24.791 100.596,25.791 101.5,26.5C 101.5,26.8333 101.5,27.1667 101.5,27.5C 100.167,27.5 98.8333,27.5 97.5,27.5C 97.5,27.1667 97.5,26.8333 97.5,26.5C 97.369,25.7611 97.5357,25.0944 98,24.5C 98.6543,25.6956 99.1543,25.6956 99.5,24.5C 99.1373,23.8165 98.8039,23.1499 98.5,22.5 Z"/></g>
<g><path style="opacity:1" fill="#7f6d59" d="M 100.5,23.5 C 101.167,23.8333 101.833,24.1667 102.5,24.5C 102.672,25.4916 102.338,26.1583 101.5,26.5C 100.596,25.791 100.263,24.791 100.5,23.5 Z"/></g>
<g><path style="opacity:1" fill="#1d1713" d="M 102.5,21.5 C 103.222,22.5511 104.222,23.2178 105.5,23.5C 105.328,24.4916 105.662,25.1583 106.5,25.5C 106.167,26.1667 105.833,26.8333 105.5,27.5C 104.167,27.5 102.833,27.5 101.5,27.5C 101.5,27.1667 101.5,26.8333 101.5,26.5C 102.338,26.1583 102.672,25.4916 102.5,24.5C 102.5,23.5 102.5,22.5 102.5,21.5 Z"/></g>
<g><path style="opacity:1" fill="#1d1d13" d="M 108.5,21.5 C 108.833,21.5 109.167,21.5 109.5,21.5C 109.5,22.8333 110.167,23.5 111.5,23.5C 111.5,24.5 111.5,25.5 111.5,26.5C 111.5,26.8333 111.5,27.1667 111.5,27.5C 110.833,27.5 110.167,27.5 109.5,27.5C 109.5,27.1667 109.5,26.8333 109.5,26.5C 108.962,24.8828 108.629,23.2161 108.5,21.5 Z"/></g>
<g><path style="opacity:1" fill="#031218" d="M 119.5,23.5 C 120.167,23.5 120.833,23.5 121.5,23.5C 121.5,24.5 121.5,25.5 121.5,26.5C 120.833,26.5 120.167,26.5 119.5,26.5C 119.5,25.5 119.5,24.5 119.5,23.5 Z"/></g>
<g><path style="opacity:1" fill="#916c42" d="M 125.5,14.5 C 125.833,14.5 126.167,14.5 126.5,14.5C 126.5,14.8333 126.5,15.1667 126.5,15.5C 126.205,17.7354 126.539,19.7354 127.5,21.5C 127.56,22.0431 127.893,22.3764 128.5,22.5C 129.429,21.3112 129.762,19.9778 129.5,18.5C 129.833,18.5 130.167,18.5 130.5,18.5C 130.802,21.0593 130.468,23.3926 129.5,25.5C 128.041,25.4326 126.708,25.7659 125.5,26.5C 125.5,23.5 125.5,20.5 125.5,17.5C 125.5,16.5 125.5,15.5 125.5,14.5 Z"/></g>
<g><path style="opacity:1" fill="#1c120e" d="M 133.5,23.5 C 134.167,24.5 134.833,25.5 135.5,26.5C 134.167,26.5 132.833,26.5 131.5,26.5C 131.343,25.1266 131.51,23.7932 132,22.5C 132.383,23.056 132.883,23.3893 133.5,23.5 Z"/></g>
<g><path style="opacity:1" fill="#b1815c" d="M 137.5,22.5 C 138.5,23.1667 139.5,23.8333 140.5,24.5C 140.5,25.1667 140.5,25.8333 140.5,26.5C 140.167,26.5 139.833,26.5 139.5,26.5C 138.5,25.8333 137.5,25.1667 136.5,24.5C 137.338,24.1583 137.672,23.4916 137.5,22.5 Z"/></g>
<g><path style="opacity:0.973" fill="#9e7045" d="M 141.5,23.5 C 141.833,23.5 142.167,23.5 142.5,23.5C 142.5,24.5 142.5,25.5 142.5,26.5C 141.833,26.5 141.167,26.5 140.5,26.5C 140.5,25.8333 140.5,25.1667 140.5,24.5C 140.5,23.8333 140.833,23.5 141.5,23.5 Z"/></g>
<g><path style="opacity:1" fill="#3c1f11" d="M 19.5,25.5 C 20.1667,25.5 20.8333,25.5 21.5,25.5C 22.1667,25.5 22.8333,25.5 23.5,25.5C 24.1667,25.5 24.8333,25.5 25.5,25.5C 24.8333,26.1667 24.1667,26.8333 23.5,27.5C 22.391,27.4431 21.391,27.1098 20.5,26.5C 19.8333,26.5 19.5,26.1667 19.5,25.5 Z"/></g>
<g><path style="opacity:1" fill="#1b0d26" d="M 27.5,24.5 C 28.1667,24.5 28.8333,24.5 29.5,24.5C 29.5,25.8333 28.8333,26.5 27.5,26.5C 26.8333,26.5 26.5,26.1667 26.5,25.5C 27.1667,25.5 27.5,25.1667 27.5,24.5 Z"/></g>
<g><path style="opacity:1" fill="#19060d" d="M 29.5,24.5 C 30.3957,25.5063 31.0623,25.5063 31.5,24.5C 31.8333,24.5 32.1667,24.5 32.5,24.5C 32.5,25.1667 32.8333,25.5 33.5,25.5C 33.5,26.1667 33.5,26.8333 33.5,27.5C 31.5,27.5 29.5,27.5 27.5,27.5C 27.5,27.1667 27.5,26.8333 27.5,26.5C 28.8333,26.5 29.5,25.8333 29.5,24.5 Z"/></g>
<g><path style="opacity:1" fill="#383724" d="M 45.5,24.5 C 46.4916,24.3284 47.1583,24.6618 47.5,25.5C 46.609,26.1098 45.609,26.4431 44.5,26.5C 44.3284,25.5084 44.6618,24.8417 45.5,24.5 Z"/></g>
<g><path style="opacity:1" fill="#796c5e" d="M 55.5,23.5 C 56.1667,23.5 56.5,23.8333 56.5,24.5C 56.1788,26.0481 55.1788,26.7148 53.5,26.5C 53.5,26.1667 53.5,25.8333 53.5,25.5C 54.1667,24.8333 54.8333,24.1667 55.5,23.5 Z"/></g>
<g><path style="opacity:1" fill="#1b0c0d" d="M 61.5,24.5 C 62.1667,24.5 62.8333,24.5 63.5,24.5C 64.209,25.404 65.209,25.7373 66.5,25.5C 66.8333,25.5 67.1667,25.5 67.5,25.5C 66.0813,26.4511 64.4147,26.7845 62.5,26.5C 61.8333,26.5 61.5,26.1667 61.5,25.5C 61.5,25.1667 61.5,24.8333 61.5,24.5 Z"/></g>
<g><path style="opacity:1" fill="#23170e" d="M 68.5,23.5 C 68.8333,23.5 69.1667,23.5 69.5,23.5C 69.369,24.2389 69.5357,24.9056 70,25.5C 70.9862,24.8288 72.1529,24.8288 73.5,25.5C 74.9187,26.4511 76.5853,26.7845 78.5,26.5C 79.5,26.5 80.5,26.5 81.5,26.5C 81.5,26.8333 81.5,27.1667 81.5,27.5C 75.1667,27.5 68.8333,27.5 62.5,27.5C 62.5,27.1667 62.5,26.8333 62.5,26.5C 64.4147,26.7845 66.0813,26.4511 67.5,25.5C 68.3382,25.1583 68.6716,24.4916 68.5,23.5 Z"/></g>
<g><path style="opacity:1" fill="#110604" d="M 74.5,24.5 C 75.3478,25.625 76.3478,25.625 77.5,24.5C 77.8333,25.1667 78.1667,25.8333 78.5,26.5C 76.5853,26.7845 74.9187,26.4511 73.5,25.5C 73.5,24.8333 73.8333,24.5 74.5,24.5 Z"/></g>
<g><path style="opacity:1" fill="#573e2a" d="M 93.5,24.5 C 93.4431,25.609 93.1098,26.609 92.5,27.5C 91.8333,27.5 91.1667,27.5 90.5,27.5C 90.1667,26.8333 89.8333,26.1667 89.5,25.5C 89.8333,25.5 90.1667,25.5 90.5,25.5C 91.1515,24.9094 91.8182,24.2427 92.5,23.5C 93.1067,23.6236 93.44,23.9569 93.5,24.5 Z"/></g>
<g><path style="opacity:1" fill="#190e1a" d="M 117.5,23.5 C 118.167,23.5 118.833,23.5 119.5,23.5C 119.5,24.5 119.5,25.5 119.5,26.5C 117.952,26.1788 117.285,25.1788 117.5,23.5 Z"/></g>
<g><path style="opacity:1" fill="#482c12" d="M 129.5,25.5 C 129.5,26.1667 129.5,26.8333 129.5,27.5C 127.833,27.5 126.167,27.5 124.5,27.5C 124.5,27.1667 124.5,26.8333 124.5,26.5C 124.833,26.5 125.167,26.5 125.5,26.5C 126.708,25.7659 128.041,25.4326 129.5,25.5 Z"/></g>
<g><path style="opacity:1" fill="#2a0609" d="M 25.5,25.5 C 25.8333,25.5 26.1667,25.5 26.5,25.5C 26.5,26.1667 26.8333,26.5 27.5,26.5C 27.5,26.8333 27.5,27.1667 27.5,27.5C 26.1667,27.5 24.8333,27.5 23.5,27.5C 24.1667,26.8333 24.8333,26.1667 25.5,25.5 Z"/></g>
<g><path style="opacity:1" fill="#321a0a" d="M 33.5,25.5 C 34.5,25.5 35.5,25.5 36.5,25.5C 36.1667,26.1667 35.8333,26.8333 35.5,27.5C 34.8333,27.5 34.1667,27.5 33.5,27.5C 33.5,26.8333 33.5,26.1667 33.5,25.5 Z"/></g>
<g><path style="opacity:1" fill="#1e0d0b" d="M 37.5,23.5 C 37.8333,23.5 38.1667,23.5 38.5,23.5C 38.5,23.8333 38.5,24.1667 38.5,24.5C 39.287,26.1042 40.6203,26.7709 42.5,26.5C 42.5,26.8333 42.5,27.1667 42.5,27.5C 40.1667,27.5 37.8333,27.5 35.5,27.5C 35.8333,26.8333 36.1667,26.1667 36.5,25.5C 36.8333,24.8333 37.1667,24.1667 37.5,23.5 Z"/></g>
<g><path style="opacity:1" fill="#231503" d="M 47.5,25.5 C 47.8417,26.3382 48.5084,26.6716 49.5,26.5C 49.5,26.8333 49.5,27.1667 49.5,27.5C 47.1667,27.5 44.8333,27.5 42.5,27.5C 42.5,27.1667 42.5,26.8333 42.5,26.5C 43.1667,26.5 43.8333,26.5 44.5,26.5C 45.609,26.4431 46.609,26.1098 47.5,25.5 Z"/></g>
<g><path style="opacity:1" fill="#1f0f0a" d="M 51.5,24.5 C 51.8333,25.5 52.5,26.1667 53.5,26.5C 53.5,26.8333 53.5,27.1667 53.5,27.5C 52.1667,27.5 50.8333,27.5 49.5,27.5C 49.5,27.1667 49.5,26.8333 49.5,26.5C 49.5,25.8333 49.5,25.1667 49.5,24.5C 49.9377,23.4937 50.6043,23.4937 51.5,24.5 Z"/></g>
<g><path style="opacity:1" fill="#261206" d="M 56.5,24.5 C 56.8333,24.5 57.1667,24.5 57.5,24.5C 57.5,25.8333 58.1667,26.5 59.5,26.5C 59.5,26.8333 59.5,27.1667 59.5,27.5C 57.5,27.5 55.5,27.5 53.5,27.5C 53.5,27.1667 53.5,26.8333 53.5,26.5C 55.1788,26.7148 56.1788,26.0481 56.5,24.5 Z"/></g>
<g><path style="opacity:1" fill="#483319" d="M 59.5,25.5 C 60.1667,25.5 60.8333,25.5 61.5,25.5C 61.5,26.1667 61.8333,26.5 62.5,26.5C 62.5,26.8333 62.5,27.1667 62.5,27.5C 61.5,27.5 60.5,27.5 59.5,27.5C 59.5,27.1667 59.5,26.8333 59.5,26.5C 59.5,26.1667 59.5,25.8333 59.5,25.5 Z"/></g>
<g><path style="opacity:1" fill="#35250d" d="M 83.5,22.5 C 84.0221,24.2191 85.0221,25.5525 86.5,26.5C 87.4916,26.3284 88.1583,26.6618 88.5,27.5C 86.1667,27.5 83.8333,27.5 81.5,27.5C 81.5,27.1667 81.5,26.8333 81.5,26.5C 83.1765,25.8166 83.8432,24.4832 83.5,22.5 Z"/></g>
<g><path style="opacity:1" fill="#240a00" d="M 109.5,26.5 C 109.5,26.8333 109.5,27.1667 109.5,27.5C 108.167,27.5 106.833,27.5 105.5,27.5C 105.833,26.8333 106.167,26.1667 106.5,25.5C 106.435,25.0618 106.601,24.7284 107,24.5C 107.417,25.756 108.25,26.4226 109.5,26.5 Z"/></g>
<g><path style="opacity:1" fill="#40310e" d="M 114.5,25.5 C 114.5,26.1667 114.5,26.8333 114.5,27.5C 113.5,27.5 112.5,27.5 111.5,27.5C 111.5,27.1667 111.5,26.8333 111.5,26.5C 111.833,26.5 112.167,26.5 112.5,26.5C 113.222,26.0825 113.722,25.4158 114,24.5C 114.399,24.7284 114.565,25.0618 114.5,25.5 Z"/></g>
<g><path style="opacity:1" fill="#4b3826" d="M 115.5,24.5 C 116.404,25.209 116.737,26.209 116.5,27.5C 115.833,27.5 115.167,27.5 114.5,27.5C 114.5,26.8333 114.5,26.1667 114.5,25.5C 115.167,25.5 115.5,25.1667 115.5,24.5 Z"/></g>
<g><path style="opacity:0.996" fill="#77572d" d="M 133.5,23.5 C 134.609,23.5569 135.609,23.8902 136.5,24.5C 137.5,25.1667 138.5,25.8333 139.5,26.5C 138.222,26.7822 137.222,27.4489 136.5,28.5C 136.5,27.8333 136.167,27.5 135.5,27.5C 135.5,27.1667 135.5,26.8333 135.5,26.5C 134.833,25.5 134.167,24.5 133.5,23.5 Z"/></g>
<g><path style="opacity:0.965" fill="#8e673b" d="M 142.5,23.5 C 143.167,24.1667 143.833,24.8333 144.5,25.5C 145.906,25.9731 146.573,26.9731 146.5,28.5C 144.62,28.7709 143.287,28.1042 142.5,26.5C 142.5,25.5 142.5,24.5 142.5,23.5 Z"/></g>
<g><path style="opacity:0.973" fill="#5f4424" d="M 20.5,26.5 C 21.391,27.1098 22.391,27.4431 23.5,27.5C 23.5,28.1667 23.5,28.8333 23.5,29.5C 22.1667,29.5 20.8333,29.5 19.5,29.5C 18.9569,29.44 18.6236,29.1067 18.5,28.5C 19.2427,27.8182 19.9094,27.1515 20.5,26.5 Z"/></g>
<g><path style="opacity:0.984" fill="#8c6e3a" d="M 27.5,27.5 C 29.5,27.5 31.5,27.5 33.5,27.5C 34.1667,27.5 34.8333,27.5 35.5,27.5C 37.8333,27.5 40.1667,27.5 42.5,27.5C 44.8333,27.5 47.1667,27.5 49.5,27.5C 50.8333,27.5 52.1667,27.5 53.5,27.5C 55.5,27.5 57.5,27.5 59.5,27.5C 60.5,27.5 61.5,27.5 62.5,27.5C 68.8333,27.5 75.1667,27.5 81.5,27.5C 83.8333,27.5 86.1667,27.5 88.5,27.5C 89.1667,27.5 89.8333,27.5 90.5,27.5C 91.1667,27.5 91.8333,27.5 92.5,27.5C 93.1667,27.5 93.8333,27.5 94.5,27.5C 95.5,27.5 96.5,27.5 97.5,27.5C 98.8333,27.5 100.167,27.5 101.5,27.5C 102.833,27.5 104.167,27.5 105.5,27.5C 106.833,27.5 108.167,27.5 109.5,27.5C 110.167,27.5 110.833,27.5 111.5,27.5C 112.5,27.5 113.5,27.5 114.5,27.5C 115.167,27.5 115.833,27.5 116.5,27.5C 119.167,27.5 121.833,27.5 124.5,27.5C 126.167,27.5 127.833,27.5 129.5,27.5C 131.5,27.5 133.5,27.5 135.5,27.5C 136.167,27.5 136.5,27.8333 136.5,28.5C 135.833,28.5 135.5,28.8333 135.5,29.5C 134.833,29.8333 134.167,30.1667 133.5,30.5C 133.5,29.8333 133.167,29.5 132.5,29.5C 97.5,28.8333 62.5,28.1667 27.5,27.5 Z"/></g>
<g><path style="opacity:1" fill="#503927" d="M 139.5,26.5 C 139.833,26.5 140.167,26.5 140.5,26.5C 141.167,26.5 141.833,26.5 142.5,26.5C 143.287,28.1042 144.62,28.7709 146.5,28.5C 144.596,30.9599 142.763,30.6265 141,27.5C 139.416,28.8613 137.582,29.528 135.5,29.5C 135.5,28.8333 135.833,28.5 136.5,28.5C 137.222,27.4489 138.222,26.7822 139.5,26.5 Z"/></g>
<g><path style="opacity:0.973" fill="#522c08" d="M 23.5,27.5 C 24.8333,27.5 26.1667,27.5 27.5,27.5C 62.5,28.1667 97.5,28.8333 132.5,29.5C 97.5,29.5 62.5,29.5 27.5,29.5C 25.8049,28.1736 24.4716,28.5069 23.5,30.5C 23.5,30.1667 23.5,29.8333 23.5,29.5C 23.5,28.8333 23.5,28.1667 23.5,27.5 Z"/></g>
<g><path style="opacity:1" fill="#755126" d="M 27.5,29.5 C 27.6716,30.4916 27.3382,31.1583 26.5,31.5C 25.6726,30.5613 25.0059,30.8946 24.5,32.5C 23.6618,32.1583 23.3284,31.4916 23.5,30.5C 24.4716,28.5069 25.8049,28.1736 27.5,29.5 Z"/></g>
<g><path style="opacity:0.988" fill="#734d2f" d="M 135.5,29.5 C 136.686,30.9613 136.686,32.2946 135.5,33.5C 135.19,32.2617 134.69,32.2617 134,33.5C 133.517,32.552 133.351,31.552 133.5,30.5C 134.167,30.1667 134.833,29.8333 135.5,29.5 Z"/></g>
<g><path style="opacity:1" fill="#221a13" d="M 26.5,31.5 C 26.5,32.1667 26.5,32.8333 26.5,33.5C 25.8333,33.8333 25.1667,34.1667 24.5,34.5C 24.5,33.8333 24.5,33.1667 24.5,32.5C 25.0059,30.8946 25.6726,30.5613 26.5,31.5 Z"/></g>
<g><path style="opacity:1" fill="#513730" d="M 132.5,29.5 C 133.167,29.5 133.5,29.8333 133.5,30.5C 133.351,31.552 133.517,32.552 134,33.5C 134.69,32.2617 135.19,32.2617 135.5,33.5C 134.992,35.2327 134.159,35.566 133,34.5C 131.481,32.8608 131.314,31.1942 132.5,29.5 Z"/></g>
<g><path style="opacity:0.357" fill="#757375" d="M 26.5,33.5 C 26.2893,35.4241 25.6226,35.7574 24.5,34.5C 25.1667,34.1667 25.8333,33.8333 26.5,33.5 Z"/></g>
</svg>
